# Blender v2.90.1 OBJ File: '陶花瓶吊兰.blend'
# www.blender.org
mtllib 陶花瓶吊兰1.mtl
o pot.001_NurbsPath.002
v 1.064193 25.684214 4.741409
v -0.085641 25.695950 4.847467
v -1.627154 25.674057 4.530836
v 3.240489 24.072529 2.678380
v 4.688210 27.090178 4.044202
v 1.281351 27.089563 5.908663
v -0.674602 27.089579 5.968198
v -2.562545 27.089817 5.419437
v 4.465660 25.081516 -1.088228
v 2.004313 25.081518 -4.267897
v 3.149497 25.081518 -3.487965
v 3.997621 25.081516 -2.392325
v -1.758349 27.424017 5.691558
v 4.507324 25.674076 2.329182
v 3.491386 25.674061 3.559692
v 2.144931 25.674049 4.416039
v -1.846658 24.874025 3.894759
v 5.306127 27.090452 3.275944
v 3.957502 27.089952 4.706202
v 2.232919 27.089642 5.650027
v 0.305712 27.090649 6.015267
v -1.640127 27.089678 5.767923
v 3.132451 27.089766 5.246071
v 3.462650 24.874023 2.887420
v 2.325344 24.874023 3.767797
v 0.971648 24.874023 4.253639
v -0.465925 24.874023 4.297387
v 2.741846 24.072527 3.131054
v 3.662004 24.072529 2.153136
v 5.726423 27.114132 -0.900234
v 5.646845 27.113813 0.865076
v 5.025638 27.113462 2.519162
v 2.900662 27.114685 -5.180684
v 4.282691 27.114578 -4.078885
v 5.256396 27.114393 -2.603875
v 6.058733 27.361620 -0.987237
v 5.887847 27.368938 2.446810
v 4.763493 27.368937 4.097716
v 3.184011 27.368940 5.320375
v 1.304012 27.368938 5.995108
v -0.692478 27.368938 6.055864
v -2.610027 27.368938 5.496699
v 2.607531 25.081522 -3.922900
v 3.616582 25.081520 -2.973448
v 4.282849 25.081522 -1.758655
v 5.234472 26.635771 0.388587
v 2.316850 26.635771 -4.931065
v 3.651473 26.635769 -4.022114
v 4.639892 26.635771 -2.745232
v 5.185356 26.635769 -1.225411
v 5.987195 27.361607 0.884546
v 5.340814 27.361595 2.642478
v 4.182975 27.361582 4.114565
v 2.627052 27.361572 5.156837
v 3.033069 27.361647 -5.504328
v 4.505738 27.361641 -4.346170
v 5.548297 27.361631 -2.789641
v 5.756567 27.424000 -2.921866
v 4.664939 27.424000 -4.536390
v 3.127915 27.424000 -5.734547
v 0.793387 27.424002 5.916717
v 2.752221 27.423998 5.360300
v 4.367030 27.423998 4.268626
v 5.565410 27.423998 2.731359
v 6.230041 27.423998 0.899027
v 6.295889 27.424002 -1.048953
v 3.914126 24.874025 2.324843
v 2.928568 24.874025 3.372268
v 1.667574 24.874025 4.063875
v 0.254579 24.874023 4.331963
v -1.172102 24.874023 4.150292
v 6.242728 27.368938 1.509993
v 5.390497 27.368938 3.316413
v 4.021763 27.368937 4.771069
v 2.270506 27.368940 5.731564
v 0.308153 27.368940 6.103883
v -1.673209 27.368938 5.851580
v 3.707567 27.368938 -5.553709
v 5.162221 27.368938 -4.184972
v 5.069324 26.635775 1.181429
v 3.019853 26.635775 -4.528996
v 4.195822 26.635773 -3.422486
v 4.972304 26.635775 -2.006741
v 5.273291 26.635775 -0.420341
v 5.078598 24.677929 0.137079
v 5.318585 24.848558 0.084339
v 5.260299 24.455723 0.084013
v 5.224955 24.314926 -0.060668
v 5.480023 24.953594 -0.060278
v 5.481477 24.596617 0.137078
v 5.271141 24.246096 -0.257907
v 5.713108 24.864513 -0.060273
v 5.740366 24.691025 0.084343
v 5.552891 24.340839 0.084025
v 5.473586 24.219191 -0.060634
v 5.437111 24.179092 -0.257907
v 5.919219 24.741709 -0.060271
v 5.791271 24.411621 0.137077
v 6.095129 24.589684 -0.060272
v 6.056424 24.422279 0.084340
v 5.758787 24.159235 0.084035
v 5.642691 24.071974 -0.060608
v 5.595531 24.045769 -0.257907
v 5.642691 24.071974 -0.455206
v 6.238067 24.413303 -0.060274
v 6.000453 24.152670 0.137280
v 6.347391 24.215477 -0.061558
v 6.214645 24.157644 0.083891
v 5.875404 23.942207 0.083701
v 5.737806 23.896257 -0.061751
v 5.679877 23.900305 -0.257907
v 5.737806 23.896255 -0.454062
v 6.416993 24.003555 -0.060284
v 6.298820 23.870014 0.084327
v 6.101393 23.851139 0.137075
v 5.713992 23.740156 -0.257907
v 6.448207 23.787891 -0.060300
v 5.908706 23.762154 0.084109
v 5.764513 23.750500 -0.060482
v 5.764512 23.750502 -0.455332
v 5.908705 23.762154 -0.599923
v 6.442879 23.571630 -0.060320
v 6.287836 23.486959 0.084289
v 6.094771 23.531521 0.137076
v 5.900651 23.572832 0.084065
v 5.757019 23.593227 -0.060569
v 5.757019 23.593227 -0.455244
v 5.696316 23.566532 -0.257907
v 6.404148 23.360023 -0.060339
v 5.680555 23.360075 -0.060537
v 5.627294 23.371500 -0.257907
v 5.680555 23.360073 -0.455277
v 5.813941 23.303463 -0.599901
v 4.498633 25.033165 1.170523
v 2.814096 25.033165 3.489090
v 1.521409 25.033167 4.147747
v 0.088456 25.033165 4.374704
vt 0.153091 0.324754
vt 0.167448 0.301557
vt 0.177526 0.324754
vt 0.201960 0.324754
vt 0.216318 0.301557
vt 0.226395 0.324754
vt 0.286086 0.301557
vt 0.275264 0.256538
vt 0.299698 0.256565
vt 0.334210 0.301557
vt 0.324133 0.256563
vt 0.348567 0.256560
vt 0.489396 0.157026
vt 0.491725 0.152786
vt 0.509695 0.152786
vt 0.473755 0.152786
vt 0.105760 0.172470
vt 0.114347 0.179887
vt 0.096377 0.179887
vt 0.069811 0.172470
vt 0.078406 0.179887
vt 0.060436 0.179887
vt 0.033862 0.172470
vt 0.042466 0.179887
vt 0.024495 0.179887
vt 0.716730 0.172470
vt 0.725340 0.179887
vt 0.707370 0.179887
vt 0.177526 0.345690
vt 0.153091 0.345690
vt 0.250829 0.301557
vt 0.250829 0.324754
vt 0.275264 0.324754
vt 0.299698 0.324754
vt 0.324133 0.324754
vt 0.348567 0.324754
vt 0.250829 0.256565
vt 0.226395 0.256563
vt 0.201960 0.256561
vt 0.153091 0.256552
vt 0.118579 0.301557
vt 0.128656 0.256545
vt 0.177526 0.256557
vt 0.671429 0.152786
vt 0.682059 0.157026
vt 0.646116 0.157026
vt 0.653459 0.152786
vt 0.635488 0.152786
vt 0.610172 0.157026
vt 0.617518 0.152786
vt 0.128656 0.249321
vt 0.153091 0.249321
vt 0.599547 0.152786
vt 0.574228 0.157026
vt 0.581577 0.152786
vt 0.177526 0.249321
vt 0.201960 0.249321
vt 0.563607 0.152786
vt 0.536679 0.157026
vt 0.545636 0.152786
vt 0.226395 0.249321
vt 0.250829 0.249321
vt 0.527666 0.152786
vt 0.275264 0.249321
vt 0.299698 0.249321
vt 0.324133 0.249321
vt 0.348567 0.249321
vt 0.006525 0.179887
vt 0.006525 0.172470
vt 0.006525 0.162832
vt 0.034622 0.162832
vt 0.006525 0.157026
vt 0.035126 0.157026
vt 0.070568 0.162832
vt 0.106516 0.162832
vt 0.645615 0.162832
vt 0.681553 0.162832
vt 0.680784 0.172470
vt 0.644840 0.172470
vt 0.717493 0.162832
vt 0.718001 0.157026
vt 0.069578 0.062079
vt 0.061295 0.070172
vt 0.053388 0.062079
vt 0.076625 0.070172
vt 0.068734 0.078265
vt 0.084195 0.062079
vt 0.090769 0.070172
vt 0.083419 0.078265
vt 0.097566 0.062079
vt 0.104279 0.070172
vt 0.108106 0.045893
vt 0.107630 0.053986
vt 0.097562 0.053986
vt 0.117692 0.053986
vt 0.053115 0.053986
vt 0.069334 0.053986
vt 0.052423 0.078265
vt 0.072839 0.086358
vt 0.065172 0.086358
vt 0.080158 0.086358
vt 0.083968 0.053986
vt 0.087224 0.086358
vt 0.094196 0.078265
vt 0.094196 0.086358
vt 0.083313 0.045893
vt 0.095889 0.045893
vt 0.101059 0.086358
vt 0.104649 0.078265
vt 0.107494 0.062079
vt 0.118247 0.078265
vt 0.117861 0.070172
vt 0.117482 0.062079
vt 0.120122 0.045893
vt 0.131948 0.053986
vt 0.132632 0.045893
vn 0.6045 -0.4373 0.6659
vn 0.5056 -0.6063 0.6139
vn 0.5499 -0.4650 0.6938
vn 0.4262 -0.5127 0.7453
vn 0.3289 -0.5895 0.7378
vn 0.2796 -0.5263 0.8030
vn -0.0383 -0.5907 0.8060
vn 0.0274 -0.4783 0.8778
vn -0.1122 -0.4810 0.8695
vn -0.2006 -0.5852 0.7857
vn -0.2394 -0.4813 0.8432
vn -0.3145 -0.4577 0.8316
vn -0.1210 0.9206 0.3712
vn -0.0938 0.9250 0.3683
vn -0.0189 0.9755 0.2190
vn -0.1483 0.9082 0.3915
vn -0.3827 0.7576 0.5287
vn -0.3411 0.7266 0.5964
vn -0.4243 0.6916 0.5845
vn -0.4795 0.7619 0.4355
vn -0.4779 0.6923 0.5406
vn -0.5848 0.6908 0.4251
vn -0.5924 0.7602 0.2667
vn -0.6223 0.6914 0.3669
vn -0.6885 0.6898 0.2239
vn -0.6305 0.7712 0.0883
vn -0.7062 0.6904 0.1568
vn -0.6854 0.7243 0.0749
vn 0.6284 -0.3547 0.6923
vn 0.1498 -0.5865 0.7960
vn 0.1592 -0.5150 0.8423
vn 0.0338 -0.5256 0.8500
vn -0.1234 -0.5144 0.8486
vn -0.2215 -0.5161 0.8274
vn -0.2975 -0.5428 0.7854
vn 0.1618 -0.4818 0.8612
vn 0.2944 -0.4787 0.8271
vn 0.4226 -0.4820 0.7675
vn 0.6379 -0.4845 0.5986
vn 0.5855 -0.6543 0.4785
vn 0.6750 -0.4958 0.5464
vn 0.5310 -0.4830 0.6963
vn 0.2342 0.9684 0.0862
vn -0.1923 0.9809 -0.0296
vn 0.1340 0.9868 0.0908
vn 0.2446 0.9647 0.0977
vn 0.2053 0.9662 0.1559
vn 0.2266 0.9423 0.2465
vn 0.2011 0.9652 0.1674
vn 0.7406 -0.3125 0.5949
vn 0.6931 -0.3118 0.6499
vn 0.1463 0.9665 0.2107
vn 0.1384 0.9431 0.3024
vn 0.1388 0.9655 0.2202
vn 0.5833 -0.3089 0.7512
vn 0.4587 -0.3066 0.8340
vn 0.0725 0.9676 0.2418
vn 0.0368 0.9399 0.3395
vn 0.0632 0.9669 0.2474
vn 0.3225 -0.3050 0.8961
vn 0.1783 -0.3036 0.9359
vn -0.0109 0.9735 0.2282
vn 0.0289 -0.3030 0.9525
vn -0.1212 -0.3039 0.9450
vn -0.2675 -0.3054 0.9139
vn -0.3370 -0.3053 0.8906
vn -0.4075 0.9119 0.0496
vn -0.4233 0.8875 0.1820
vn -0.2465 0.9686 0.0334
vn -0.2411 0.9680 0.0689
vn -0.4238 0.8132 0.3989
vn -0.3634 0.8106 0.4591
vn -0.4053 0.9019 -0.1497
vn -0.4055 0.9106 -0.0793
vn -0.5790 0.8060 -0.1233
vn -0.5608 0.8013 -0.2083
vn -0.2480 -0.4063 0.8794
vn 0.0137 0.0402 0.9991
vn -0.1985 -0.5092 0.8374
vn 0.0174 0.0209 0.9996
vn 0.2634 0.3911 0.8818
vn -0.3723 -0.2960 0.8797
vn 0.0237 0.0106 0.9997
vn 0.3967 0.3290 0.8570
vn -0.4529 -0.1577 0.8775
vn 0.0246 0.0038 0.9997
vn -0.9619 -0.0540 0.2681
vn -0.8611 -0.0578 0.5052
vn -0.8101 -0.2859 0.5119
vn -0.8938 0.1305 0.4290
vn -0.2579 -0.6626 0.7032
vn -0.3647 -0.6042 0.7085
vn 0.0989 0.2647 0.9592
vn 0.4228 0.5574 0.7145
vn 0.3740 0.6278 0.6826
vn 0.4902 0.5001 0.7138
vn -0.6651 -0.4668 0.5829
vn 0.5938 0.3863 0.7058
vn 0.4685 0.2020 0.8601
vn 0.6387 0.2787 0.7172
vn -0.8444 -0.4727 0.2521
vn -0.8984 -0.3503 0.2649
vn 0.6677 0.2080 0.7148
vn 0.3827 0.0867 0.9198
vn -0.4845 -0.0299 0.8743
vn 0.2605 -0.0066 0.9655
vn 0.0305 -0.0004 0.9995
vn -0.4870 0.0193 0.8732
vn -0.9388 0.2182 0.2665
vn -0.9162 0.3113 0.2525
usemtl pot_texture
s 1
f 24/1/1 15/2/2 68/3/3
f 25/4/4 16/5/5 69/6/6
f 2/7/7 21/8/8 7/9/9
f 3/10/10 22/11/11 8/12/12
f 13/13/13 77/14/14 41/15/15
f 13/13/13 42/16/16 77/14/14
f 33/17/17 47/18/18 81/19/19
f 34/20/20 48/21/21 82/22/22
f 35/23/23 49/24/24 83/25/25
f 30/26/26 50/27/27 84/28/28
f 68/3/3 28/29/29 4/30/29 24/1/1
f 15/2/2 16/5/5 25/4/4 68/3/3
f 16/5/5 1/31/30 26/32/31 69/6/6
f 2/7/7 70/33/32 26/32/31 1/31/30
f 27/34/33 70/33/32 2/7/7
f 3/10/10 71/35/34 27/34/33 2/7/7
f 17/36/35 71/35/34 3/10/10
f 6/37/36 1/31/30 16/5/5 20/38/37
f 16/5/5 23/39/38 20/38/37
f 21/8/8 2/7/7 1/31/30 6/37/36
f 7/9/9 22/11/11 3/10/10 2/7/7
f 5/40/39 15/2/2 14/41/40 18/42/41
f 23/39/38 16/5/5 15/2/2 19/43/42
f 15/2/2 5/40/39 19/43/42
f 72/44/43 65/45/44 64/46/45 37/47/46
f 73/48/47 64/46/45 63/49/48 38/50/49
f 64/46/45 73/48/47 37/47/46
f 18/42/41 73/51/50 38/52/51 5/40/39
f 74/53/52 63/49/48 62/54/53 39/55/54
f 63/49/48 74/53/52 38/50/49
f 19/43/42 74/56/55 39/57/56 23/39/38
f 5/40/39 38/52/51 74/56/55 19/43/42
f 75/58/57 62/54/53 61/59/58 40/60/59
f 62/54/53 75/58/57 39/55/54
f 20/38/37 75/61/60 40/62/61 6/37/36
f 23/39/38 39/57/56 75/61/60 20/38/37
f 41/15/15 76/63/62 61/59/58 13/13/13
f 61/59/58 76/63/62 40/60/59
f 7/9/9 21/8/8 76/64/63 41/65/64
f 6/37/36 40/62/61 76/64/63 21/8/8
f 8/12/12 22/11/11 77/66/65 42/67/66
f 22/11/11 7/9/9 41/65/64 77/66/65
f 81/19/19 48/21/21 34/20/20 33/17/17
f 82/22/22 49/24/24 35/23/23 34/20/20
f 83/25/25 50/68/27 30/69/26 35/23/23
f 36/70/67 57/71/68 35/23/23 30/69/26
f 66/72/69 58/73/70 57/71/68 36/70/67
f 57/71/68 56/74/71 34/20/20 35/23/23
f 56/74/71 55/75/72 33/17/17 34/20/20
f 52/76/73 51/77/74 31/78/75 32/79/76
f 64/46/45 65/45/44 51/77/74 52/76/73
f 51/77/74 36/80/67 30/26/26 31/78/75
f 65/45/44 66/81/69 36/80/67 51/77/74
f 94/82/77 90/83/78 87/84/79
f 98/85/80 93/86/81 90/83/78
f 101/87/82 98/85/80 94/82/77
f 106/88/83 100/89/84 98/85/80
f 109/90/85 106/88/83 101/87/82
f 109/90/85 115/91/86 106/88/83
f 116/92/87 119/93/88 110/94/89
f 116/92/87 126/95/90 119/93/88
f 87/84/79 88/96/91 95/97/92 94/82/77
f 90/83/78 93/86/81 86/98/93
f 93/86/81 97/99/94 92/100/95
f 94/82/77 98/85/80 90/83/78
f 97/99/94 93/86/81 100/89/84 99/101/96
f 94/82/77 95/97/92 102/102/97 101/87/82
f 98/85/80 100/89/84 93/86/81
f 100/89/84 105/103/98 99/101/96
f 101/87/82 106/88/83 98/85/80
f 105/103/98 100/89/84 108/104/99 107/105/100
f 101/87/82 102/102/97 110/94/89 109/90/85
f 106/88/83 108/104/99 100/89/84
f 102/102/97 103/106/101 111/107/102 110/94/89
f 113/108/103 107/105/100 108/104/99 114/109/104
f 114/109/104 108/104/99 106/88/83 115/91/86
f 111/107/102 116/92/87 110/94/89
f 118/110/105 109/90/85 110/94/89 119/93/88
f 109/90/85 118/110/105 115/91/86
f 123/111/106 114/109/104 115/91/86 124/112/107
f 124/112/107 115/91/86 118/110/105 125/113/108
f 125/113/108 118/110/105 119/93/88 126/95/90
f 116/92/87 128/114/109 126/95/90
f 130/115/110 126/95/90 128/114/109 131/116/110
l 29 4
l 10 47
l 11 48
l 12 49
l 9 50
l 58 59
l 59 60
l 29 67
l 14 67
l 60 78
l 59 79
l 31 80
l 43 81
l 44 82
l 45 83
l 54 53
l 53 52
l 46 31
l 60 55
l 85 90
l 89 92
l 91 96
l 96 103
l 104 112
l 116 112
l 120 121
l 117 122
l 120 127
l 122 129
l 127 132
l 131 132
l 132 133
l 117 114
l 116 127
l 129 123
l 136 135
l 134 137
