# Blender v2.90.1 OBJ File: '陶花瓶吊兰.blend'
# www.blender.org
mtllib 陶花瓶吊兰12.mtl
o pot.012_NurbsPath.013
v -7.001616 13.346448 3.640326
v -5.796348 13.346449 -5.824690
v -5.738008 9.575280 -5.769796
v -3.788297 13.346449 -7.379099
v -3.749774 9.575281 -7.308863
v -1.398186 13.346448 -8.236908
v -1.383254 9.575281 -8.158206
v 1.140020 13.346448 -8.314147
v 1.129902 9.575281 -8.234682
v 3.577868 13.346449 -7.603258
v 3.543688 9.575281 -7.530809
v 5.676720 13.346448 -6.173825
v 5.621825 9.575281 -6.115485
v 3.313510 15.232033 -7.042915
v -7.111341 10.952719 3.700506
v -5.887491 10.952729 -5.910448
v -3.848478 10.952739 -7.488826
v -1.421516 10.952734 -8.359859
v 1.155831 10.952723 -8.438290
v 3.631264 10.952729 -7.716441
v 5.762480 10.952735 -6.264968
v 2.861539 1.368761 2.772434
v 2.077496 1.367315 3.315904
v -3.620660 1.368762 1.411700
v -3.955262 1.368761 0.175441
v -3.891462 1.368763 -1.103710
v -2.602219 2.640449 -3.772629
v -2.036313 2.709279 -4.184738
v -1.384622 2.640450 -4.440434
v -0.719064 2.709276 -4.657496
v -0.020255 2.640449 -4.699295
v 0.679804 2.709278 -4.700065
v 1.357330 2.640448 -4.523873
v 2.023364 2.709281 -4.308277
v 2.613281 2.640450 -3.931341
v 3.180093 2.709281 -3.520481
v 3.624655 2.640447 -2.979699
v 4.036764 2.709275 -2.413792
v -6.786376 14.289240 3.522276
v -3.169453 6.608043 -6.250767
v -1.158306 6.608055 -6.972574
v 0.977461 6.608045 -7.037560
v 3.473124 14.289240 -7.381239
v 3.028777 6.608038 -6.439381
v 5.508496 14.289241 -5.995041
v 4.794852 6.608057 -5.236600
v 5.481792 6.532642 -4.417285
v 3.935279 6.532636 -5.872449
v 4.638332 9.575280 -6.904751
v 4.683424 13.346449 -6.970959
v 2.014789 6.532626 -6.778490
v 2.364434 9.575280 -7.977529
v 2.386859 13.346449 -8.054432
v -0.091692 6.532629 -7.046731
v -0.129679 9.575280 -8.295132
v -0.132116 13.346449 -8.375198
v -2.177960 6.532640 -6.650910
v -2.599866 9.575281 -7.826463
v -2.626926 13.346449 -7.901858
v -4.039807 6.532640 -5.629763
v -4.804328 9.575282 -6.617404
v -4.853361 13.346448 -6.680746
v -6.303262 13.346449 4.705389
v -7.108756 12.403656 3.699089
v -5.885344 12.403656 -5.908428
v -3.847059 12.403656 -7.486239
v -1.420965 12.403655 -8.356965
v 1.155456 12.403656 -8.435368
v 3.630007 12.403656 -7.713773
v 5.760459 12.403655 -6.262821
v -6.408406 10.955960 4.786780
v -7.649524 10.955959 2.523871
v -4.934750 10.955970 -6.785892
v -2.671844 10.955977 -8.027007
v -0.136159 10.955971 -8.508102
v 2.424082 10.955975 -8.182081
v 4.758271 10.955967 -7.080858
v 2.895562 1.760141 2.713349
v 2.660974 0.806259 3.481452
v 1.379336 0.806260 4.085023
v -0.026085 0.806258 4.263006
v -3.629423 0.806258 2.283494
v -4.232997 0.806259 1.001854
v 1.248832 1.062518 3.848719
v 2.160910 1.058654 3.467990
v -3.779520 1.062520 1.476452
v -4.126357 1.062520 0.187933
v 2.972209 1.062519 2.903512
v 1.840546 0.427915 4.545826
v 1.066967 0.432477 4.756025
v -5.456733 8.268649 -5.505133
v -3.564052 8.268643 -6.970233
v -1.311263 8.268661 -7.778765
v 1.081115 8.268642 -7.851561
v 3.378897 8.268644 -7.181514
v 5.357163 8.268647 -5.834208
v -4.410040 7.689697 -6.108046
v -2.382277 7.689697 -7.220195
v -0.110087 7.689697 -7.651297
v 2.184113 7.689697 -7.359154
v 4.275748 7.689698 -6.372363
v 4.488681 8.632489 -6.685014
v 4.752207 12.403655 -7.071956
v 2.290008 8.632489 -7.722302
v 2.421067 12.403655 -8.171739
v -0.121593 8.632488 -8.029396
v -0.135833 12.403655 -8.497338
v -2.510058 8.632489 -7.576231
v -2.668203 12.403655 -8.016868
v -4.641590 8.632489 -6.407173
v -4.928159 12.403655 -6.777373
v -7.639385 12.403657 2.520233
v -6.399889 12.403656 4.780188
v 4.545243 14.289239 -6.768065
v -6.109146 14.289240 4.555128
vt 0.837260 0.758934
vt 0.861695 0.749597
vt 0.861695 0.774396
vt 0.886129 0.758934
vt 0.788391 0.758934
vt 0.812826 0.749597
vt 0.812826 0.774396
vt 0.739522 0.758934
vt 0.763956 0.749597
vt 0.763956 0.774396
vt 0.690653 0.758934
vt 0.715087 0.749597
vt 0.715087 0.774396
vt 0.641783 0.758934
vt 0.666218 0.749597
vt 0.666218 0.774396
vt 0.507877 0.958855
vt 0.480302 0.967839
vt 0.459007 0.958855
vt 0.201960 0.958855
vt 0.187087 0.967839
vt 0.165792 0.958855
vt 0.910564 0.806267
vt 0.910564 0.917244
vt 0.886129 0.915369
vt 0.886129 0.804157
vt 0.861695 0.806267
vt 0.861695 0.917244
vt 0.837260 0.915369
vt 0.837260 0.804158
vt 0.861695 0.725683
vt 0.837260 0.725683
vt 0.886129 0.725683
vt 0.861695 0.691590
vt 0.837260 0.691682
vt 0.837260 0.656256
vt 0.861695 0.656256
vt 0.837260 0.633048
vt 0.861695 0.633048
vt 0.886129 0.633048
vt 0.886129 0.656256
vt 0.886129 0.691681
vt 0.812826 0.806267
vt 0.812826 0.917244
vt 0.788391 0.915369
vt 0.788391 0.804158
vt 0.812826 0.725683
vt 0.788391 0.725683
vt 0.812826 0.691589
vt 0.788391 0.691682
vt 0.788391 0.656256
vt 0.812826 0.656256
vt 0.788391 0.633048
vt 0.812826 0.633048
vt 0.763956 0.806267
vt 0.763956 0.917244
vt 0.739522 0.915369
vt 0.739522 0.804157
vt 0.763956 0.725683
vt 0.739522 0.725683
vt 0.763956 0.691590
vt 0.739522 0.691681
vt 0.739522 0.656256
vt 0.763956 0.656256
vt 0.739522 0.633048
vt 0.763956 0.633048
vt 0.715087 0.806267
vt 0.715087 0.917244
vt 0.690653 0.915369
vt 0.690653 0.804158
vt 0.715087 0.725683
vt 0.690653 0.725683
vt 0.715087 0.691589
vt 0.690653 0.691681
vt 0.690653 0.656256
vt 0.715087 0.656256
vt 0.690653 0.633048
vt 0.715087 0.633048
vt 0.666218 0.917244
vt 0.666218 0.806267
vt 0.666218 0.725683
vt 0.641783 0.725683
vt 0.666218 0.691590
vt 0.641783 0.691682
vt 0.641783 0.656256
vt 0.666218 0.656256
vt 0.641783 0.633048
vt 0.666218 0.633048
vt 0.446306 0.633048
vt 0.446306 0.656256
vt 0.421872 0.656256
vt 0.421872 0.633048
vt 0.837260 0.609264
vt 0.861695 0.609264
vt 0.886129 0.609264
vt 0.446306 0.609264
vt 0.421872 0.609264
vt 0.235956 0.967839
vt 0.238128 0.958855
vt 0.165576 0.950212
vt 0.201960 0.950212
vn 0.3978 -0.3614 -0.8433
vn 0.5341 -0.3160 -0.7842
vn 0.5098 -0.4241 -0.7485
vn 0.5849 -0.3605 -0.7266
vn 0.1178 -0.3614 -0.9249
vn 0.2656 -0.3160 -0.9108
vn 0.2535 -0.4241 -0.8694
vn -0.1738 -0.3614 -0.9161
vn -0.0289 -0.3160 -0.9483
vn -0.0275 -0.4241 -0.9052
vn -0.4484 -0.3614 -0.8175
vn -0.3205 -0.3160 -0.8930
vn -0.3059 -0.4241 -0.8524
vn -0.6351 -0.3141 -0.7056
vn -0.5808 -0.3160 -0.7503
vn -0.5266 -0.4104 -0.7445
vn -0.6099 0.7753 0.1642
vn 0.3756 0.6454 0.6651
vn 0.3506 0.7433 0.5698
vn 0.4673 0.5701 0.6757
vn 0.6309 -0.5158 -0.5796
vn 0.5867 -0.5168 -0.6235
vn 0.5805 -0.4928 -0.6482
vn 0.4920 -0.4857 -0.7225
vn 0.4818 -0.5171 -0.7074
vn 0.3653 -0.5168 -0.7743
vn 0.3739 -0.4818 -0.7925
vn 0.5499 -0.2141 -0.8074
vn 0.4168 -0.2139 -0.8835
vn 0.6148 -0.2133 -0.7593
vn 0.5614 -0.0724 -0.8244
vn 0.4256 -0.0727 -0.9020
vn 0.4257 0.0666 -0.9024
vn 0.5617 0.0666 -0.8247
vn 0.4431 0.1694 -0.8803
vn 0.5526 0.1900 -0.8115
vn 0.6146 0.1895 -0.7658
vn 0.6257 0.0664 -0.7772
vn 0.6265 -0.0725 -0.7760
vn 0.2447 -0.4857 -0.8392
vn 0.2396 -0.5171 -0.8217
vn 0.1081 -0.5168 -0.8493
vn 0.1107 -0.4818 -0.8693
vn 0.2735 -0.2141 -0.9378
vn 0.1234 -0.2139 -0.9690
vn 0.2792 -0.0724 -0.9575
vn 0.1260 -0.0727 -0.9894
vn 0.1260 0.0666 -0.9898
vn 0.2793 0.0666 -0.9579
vn 0.1253 0.1285 -0.9838
vn 0.2776 0.1285 -0.9521
vn -0.0266 -0.4857 -0.8737
vn -0.0260 -0.5171 -0.8555
vn -0.1596 -0.5168 -0.8411
vn -0.1633 -0.4818 -0.8609
vn -0.0297 -0.2141 -0.9764
vn -0.1821 -0.2139 -0.9597
vn -0.0303 -0.0724 -0.9969
vn -0.1859 -0.0727 -0.9799
vn -0.1860 0.0666 -0.9803
vn -0.0303 0.0666 -0.9973
vn -0.1849 0.1285 -0.9743
vn -0.0302 0.1285 -0.9912
vn -0.2953 -0.4857 -0.8227
vn -0.2891 -0.5171 -0.8056
vn -0.4117 -0.5168 -0.7506
vn -0.4214 -0.4818 -0.7683
vn -0.3300 -0.2141 -0.9194
vn -0.4698 -0.2139 -0.8565
vn -0.3369 -0.0724 -0.9387
vn -0.4796 -0.0727 -0.8745
vn -0.4798 0.0666 -0.8748
vn -0.3371 0.0666 -0.9391
vn -0.4769 0.1285 -0.8695
vn -0.3350 0.1285 -0.9334
vn -0.4655 -0.5158 -0.7192
vn -0.4726 -0.4843 -0.7363
vn -0.5979 -0.2141 -0.7724
vn -0.6598 -0.2133 -0.7205
vn -0.6105 -0.0724 -0.7887
vn -0.6726 -0.0725 -0.7365
vn -0.6718 0.0664 -0.7378
vn -0.6108 0.0666 -0.7890
vn -0.6666 0.1281 -0.7343
vn -0.6070 0.1285 -0.7842
vn -0.8211 0.1895 0.5384
vn -0.8294 0.1281 0.5438
vn 0.4805 0.2512 -0.8402
vn 0.5447 0.2520 -0.7999
vn 0.6058 0.2512 -0.7549
vn -0.8094 0.2512 0.5307
vn 0.2968 0.6914 0.6587
vn 0.4970 0.4875 0.7179
usemtl pot_texture
s 1
f 95/1/1 102/2/2 101/3/3
f 102/2/2 96/4/4 101/3/3
f 94/5/5 104/6/6 100/7/7
f 104/6/6 95/1/1 100/7/7
f 93/8/8 106/9/9 99/10/10
f 106/9/9 94/5/5 99/10/10
f 92/11/11 108/12/12 98/13/13
f 108/12/12 93/8/8 98/13/13
f 91/14/14 110/15/15 97/16/16
f 110/15/15 92/11/11 97/16/16
f 87/17/17 83/18/17 86/19/17
f 85/20/18 79/21/19 88/22/20
f 47/23/21 37/24/21 36/25/22 46/26/23
f 48/27/24 35/28/25 34/29/26 44/30/27
f 36/25/22 35/28/25 48/27/24 46/26/23
f 49/31/28 102/2/2 95/1/1 11/32/29
f 96/4/4 102/2/2 49/31/28 13/33/30
f 77/34/31 20/35/32 69/36/33 103/37/34
f 103/37/34 69/36/33 10/38/35 50/39/36
f 12/40/37 70/41/38 103/37/34 50/39/36
f 70/41/38 21/42/39 77/34/31 103/37/34
f 51/43/40 33/44/41 32/45/42 42/46/43
f 34/29/26 33/44/41 51/43/40 44/30/27
f 52/47/44 104/6/6 94/5/5 9/48/45
f 95/1/1 104/6/6 52/47/44 11/32/29
f 76/49/46 19/50/47 68/51/48 105/52/49
f 105/52/49 68/51/48 8/53/50 53/54/51
f 10/38/35 69/36/33 105/52/49 53/54/51
f 69/36/33 20/35/32 76/49/46 105/52/49
f 54/55/52 31/56/53 30/57/54 41/58/55
f 32/45/42 31/56/53 54/55/52 42/46/43
f 55/59/56 106/9/9 93/8/8 7/60/57
f 94/5/5 106/9/9 55/59/56 9/48/45
f 75/61/58 18/62/59 67/63/60 107/64/61
f 107/64/61 67/63/60 6/65/62 56/66/63
f 8/53/50 68/51/48 107/64/61 56/66/63
f 68/51/48 19/50/47 75/61/58 107/64/61
f 57/67/64 29/68/65 28/69/66 40/70/67
f 30/57/54 29/68/65 57/67/64 41/58/55
f 58/71/68 108/12/12 92/11/11 5/72/69
f 93/8/8 108/12/12 58/71/68 7/60/57
f 74/73/70 17/74/71 66/75/72 109/76/73
f 109/76/73 66/75/72 4/77/74 59/78/75
f 6/65/62 67/63/60 109/76/73 59/78/75
f 67/63/60 18/62/59 74/73/70 109/76/73
f 28/69/66 27/79/76 60/80/77 40/70/67
f 61/81/78 110/15/15 91/14/14 3/82/79
f 92/11/11 110/15/15 61/81/78 5/72/69
f 73/83/80 16/84/81 65/85/82 111/86/83
f 111/86/83 65/85/82 2/87/84 62/88/85
f 4/77/74 66/75/72 111/86/83 62/88/85
f 66/75/72 17/74/71 73/83/80 111/86/83
f 1/89/86 64/90/87 113/91/87 63/92/86
f 50/39/36 10/38/35 43/93/88 114/94/89
f 45/95/90 12/40/37 50/39/36 114/94/89
f 39/96/91 1/89/86 63/92/86 115/97/91
f 73/83/80 61/81/78 3/82/79 16/84/81
f 5/72/69 61/81/78 73/83/80 17/74/71
f 74/73/70 58/71/68 5/72/69 17/74/71
f 7/60/57 58/71/68 74/73/70 18/62/59
f 75/61/58 55/59/56 7/60/57 18/62/59
f 9/48/45 55/59/56 75/61/58 19/50/47
f 76/49/46 52/47/44 9/48/45 19/50/47
f 11/32/29 52/47/44 76/49/46 20/35/32
f 77/34/31 49/31/28 11/32/29 20/35/32
f 13/33/30 49/31/28 77/34/31 21/42/39
f 80/98/92 79/21/19 85/20/18 84/99/92
f 88/22/20 22/100/93 23/101/93 85/20/18
f 40/70/67 60/80/77 97/16/16 92/11/11
f 98/13/13 57/67/64 40/70/67 92/11/11
f 41/58/55 57/67/64 98/13/13 93/8/8
f 99/10/10 54/55/52 41/58/55 93/8/8
f 42/46/43 54/55/52 99/10/10 94/5/5
f 100/7/7 51/43/40 42/46/43 94/5/5
f 44/30/27 51/43/40 100/7/7 95/1/1
f 101/3/3 48/27/24 44/30/27 95/1/1
f 46/26/23 48/27/24 101/3/3 96/4/4
l 14 43
l 64 15
l 24 25
l 25 26
l 78 22
l 80 81
l 82 83
l 25 87
l 38 37
l 64 112
l 72 112
l 71 113
l 89 80
l 90 81
l 89 90
