# Blender v2.90.1 OBJ File: '陶花瓶吊兰.blend'
# www.blender.org
mtllib 陶花瓶吊兰10.mtl
o pot.010_NurbsPath.011
v 6.880637 16.502499 0.598835
v 1.612768 9.575281 7.632749
v -0.900387 9.575281 7.709228
v -3.348351 13.346449 7.077807
v -3.314172 9.575281 7.005358
v -5.447205 13.346449 5.648376
v -5.392312 9.575281 5.590036
v 7.480223 15.232033 -1.660182
v 6.894946 15.232034 2.936020
v 5.574631 15.232033 4.874656
v -3.083994 15.232033 6.517464
v -5.022631 15.232033 5.197150
v -6.458385 15.232033 3.342385
v 6.687896 15.232033 -3.867834
v 1.651028 10.952727 7.834403
v -0.926318 10.952735 7.912838
v -3.401746 10.952730 7.190991
v -5.532965 10.952724 5.739518
v 3.665017 1.368762 1.775080
v 2.861539 1.368761 2.772434
v 2.077496 1.367315 3.315904
v -0.726226 1.368762 3.743490
v -1.923053 1.368762 3.287535
v -2.920409 1.368762 2.484054
v -3.620660 1.368762 1.411700
v 6.853625 16.631439 -0.467804
v 6.587189 16.631411 1.624665
v 5.687160 16.631432 3.532374
v 2.831732 2.640449 3.247170
v 4.241689 16.631392 5.068615
v 2.265825 2.709278 3.659279
v 1.614132 2.640454 3.914979
v 0.948578 2.709282 4.132042
v 0.249767 2.640453 4.173840
v -0.450292 2.709277 4.174610
v -1.127815 2.640449 3.998419
v -1.793850 2.709283 3.782825
v -2.383766 2.640449 3.405889
v -2.950578 2.709277 2.995029
v -3.395145 2.640451 2.454249
v -3.807253 2.709278 1.888341
v -4.062951 2.640450 1.236651
v 3.398963 6.608047 5.725313
v 1.387817 6.608051 6.447116
v -0.747947 6.608045 6.512107
v -3.243608 14.289240 6.855790
v -2.799260 6.608047 5.913936
v -5.278981 14.289241 5.469593
v -4.565333 6.608044 4.711146
v -5.873285 6.608044 3.021482
v -5.252278 6.532638 3.891834
v -6.239919 9.575280 4.656356
v -6.303262 13.346449 4.705389
v -3.705765 6.532635 5.346997
v -4.408817 9.575281 6.379301
v -4.453907 13.346449 6.445509
v -1.785275 6.532639 6.253047
v -2.134918 9.575281 7.452077
v 0.321203 6.532634 6.521279
v 0.359194 9.575281 7.769675
v 2.407476 6.532642 6.125454
v 2.829380 9.575281 7.301006
v 4.269317 6.532640 5.104304
v 6.283246 16.502516 2.647431
v 5.082050 16.502508 4.411172
v 7.847752 14.289240 -1.729913
v 7.170748 15.232033 -2.795121
v -5.813340 15.232034 4.326148
v -4.105158 15.232033 5.933434
v 4.703629 15.232033 5.665365
v 6.310916 15.232033 3.957184
v 7.311678 15.232033 1.835928
v 1.650479 12.403655 7.831508
v -0.925941 12.403656 7.909913
v -3.400491 12.403656 7.188323
v -5.530944 12.403655 5.737372
v 0.365675 10.955960 7.982646
v -2.194567 10.955976 7.656629
v -4.528756 10.955972 6.555408
v -6.408406 10.955960 4.786780
v 1.197785 1.368762 3.684938
v 0.238903 1.367315 3.816817
v 0.615175 1.760141 3.779486
v 1.839798 1.760142 3.427007
v -3.829844 1.760140 0.752190
v -3.323154 1.760142 1.921466
v 2.895562 1.760141 2.713349
v -2.668731 1.760580 2.695488
v -1.856347 1.760141 3.301634
v -0.658428 1.760141 3.736285
v 3.793564 8.268644 6.444777
v 1.540774 8.268643 7.253303
v -0.851599 8.268641 7.326106
v -3.149385 8.268654 6.656065
v -5.127650 8.268643 5.308760
v 4.639552 7.689697 5.582588
v 2.611790 7.689698 6.694739
v 0.339601 7.689697 7.125842
v -1.954597 7.689697 6.833701
v -4.046234 7.689697 5.846913
v -5.730563 7.689697 4.262069
v -6.029688 8.632488 4.493619
v -6.399889 12.403656 4.780188
v -4.259165 8.632489 6.159564
v -4.522693 12.403655 6.546505
v -2.060493 8.632489 7.196849
v -2.191551 12.403655 7.646287
v 0.351108 8.632489 7.503940
v 0.365348 12.403655 7.971880
v 2.739573 8.632490 7.050775
v 7.522836 14.289240 -2.921484
v -6.109146 14.289240 4.555128
v -4.315727 14.289240 6.242615
v 3.471895 1.760580 2.023662
v 4.843371 16.236950 0.078251
v 4.898228 16.105890 -0.063826
v 4.618564 16.774042 -0.257907
v 4.638644 16.726070 -0.063826
v 4.693501 16.595015 0.078251
v 4.768435 16.415981 0.130255
v 5.663909 16.592623 0.078308
v 5.416423 16.327707 -0.063825
v 5.471446 16.295286 -0.257907
v 5.416420 16.327705 -0.451988
v 5.103995 16.981606 -0.257907
v 5.159568 16.949348 -0.063944
v 5.554394 16.969921 0.078165
v 5.610718 16.781816 0.130261
v 5.967013 16.582035 -0.063820
v 6.016952 16.548635 -0.257907
v 5.634462 17.225842 -0.257907
v 5.683989 17.192146 -0.063959
v 6.325927 16.927217 0.078289
v 6.402896 16.807333 -0.063812
v 6.125813 17.481260 -0.257907
v 6.084963 17.399992 -0.063968
v 6.161191 17.279873 0.078181
v 6.434175 17.209843 0.130263
v 6.662158 17.128147 0.078297
v 6.746460 17.013391 -0.063797
v 6.383122 17.579393 -0.063969
v 6.466754 17.464401 0.078178
v 6.456625 17.693029 -0.257907
v 5.536330 18.600208 -0.110488
v 5.495564 18.580988 -0.306559
v 5.701922 18.476610 0.041326
v 5.574040 18.429346 -0.106520
v 5.536866 18.402159 -0.302406
v 5.767019 18.326977 0.044642
v 5.651414 18.253386 -0.102642
v 5.620237 18.218502 -0.298466
v 5.875006 18.184975 0.046458
v 5.743559 18.127316 -0.101049
v 5.710436 18.096811 -0.296865
v 5.789626 18.095823 -0.488886
v 5.874405 18.004627 -0.102076
v 5.793430 18.014240 -0.296689
v 5.993004 18.091780 0.045347
v 5.891355 17.941280 -0.297709
v 6.025369 17.919344 -0.104217
v 6.002664 17.881031 -0.300147
v 6.079127 17.912294 -0.493762
v 6.144375 17.875137 -0.108086
v 6.125237 17.835493 -0.304132
vt 0.397437 0.758934
vt 0.421872 0.749597
vt 0.421872 0.774396
vt 0.348567 0.758934
vt 0.373003 0.749597
vt 0.373003 0.774396
vt 0.299698 0.758934
vt 0.324133 0.749597
vt 0.324133 0.774396
vt 0.250829 0.758934
vt 0.275264 0.749597
vt 0.275264 0.774396
vt 0.201960 0.758934
vt 0.226395 0.749597
vt 0.226395 0.774396
vt 0.260828 0.940599
vt 0.238344 0.950212
vt 0.211958 0.940599
vt 0.201960 0.950212
vt 0.373003 0.917244
vt 0.358566 0.940599
vt 0.348567 0.915369
vt 0.275264 0.917244
vt 0.250829 0.915369
vt 0.275264 0.950212
vt 0.324133 0.917244
vt 0.309697 0.940599
vt 0.299698 0.915369
vt 0.104221 0.549373
vt 0.104221 0.584503
vt 0.079787 0.584503
vt 0.079787 0.545691
vt 0.128656 0.584503
vt 0.128656 0.545691
vt 0.153091 0.549373
vt 0.153091 0.584503
vt 0.177526 0.584503
vt 0.177526 0.545692
vt 0.421872 0.806267
vt 0.421872 0.917244
vt 0.397437 0.915369
vt 0.397437 0.804158
vt 0.446306 0.915369
vt 0.446306 0.804158
vt 0.421872 0.725683
vt 0.397437 0.725683
vt 0.421872 0.691590
vt 0.397437 0.691682
vt 0.397437 0.656256
vt 0.421872 0.656256
vt 0.397437 0.633048
vt 0.421872 0.633048
vt 0.373003 0.806267
vt 0.348567 0.804158
vt 0.373003 0.725683
vt 0.348567 0.725683
vt 0.373003 0.691590
vt 0.348567 0.691682
vt 0.348567 0.656256
vt 0.373003 0.656256
vt 0.348567 0.633048
vt 0.373003 0.633048
vt 0.324133 0.806267
vt 0.299698 0.804158
vt 0.324133 0.725683
vt 0.299698 0.725683
vt 0.324133 0.691589
vt 0.299698 0.691681
vt 0.299698 0.656256
vt 0.324133 0.656256
vt 0.275264 0.806267
vt 0.250829 0.804158
vt 0.275264 0.725683
vt 0.250829 0.725683
vt 0.275264 0.691590
vt 0.250829 0.691682
vt 0.250829 0.656256
vt 0.275264 0.656256
vt 0.226395 0.806267
vt 0.226395 0.917244
vt 0.201960 0.915369
vt 0.201960 0.804158
vt 0.226395 0.725683
vt 0.177526 0.917244
vt 0.177526 0.806267
vt 0.397437 0.609264
vt 0.421872 0.609264
vt 0.397437 0.584503
vt 0.421872 0.584503
vt 0.348567 0.609264
vt 0.373003 0.609264
vt 0.348567 0.584503
vt 0.373003 0.584503
vt 0.436308 0.940599
vt 0.470741 0.917244
vt 0.485177 0.940599
vt 0.458792 0.950212
vt 0.397437 0.940599
vt 0.361053 0.950212
vt 0.409923 0.950212
vt 0.312184 0.950212
vt 0.165576 0.950212
vt 0.163089 0.940599
vt 0.177526 0.774396
vt 0.486878 0.128001
vt 0.495806 0.136249
vt 0.471485 0.136249
vt 0.523885 0.119753
vt 0.530801 0.128001
vt 0.515493 0.128001
vt 0.485663 0.119753
vt 0.447843 0.119753
vt 0.447843 0.111504
vt 0.484343 0.111504
vt 0.713658 0.103256
vt 0.714841 0.111504
vt 0.710711 0.111504
vt 0.714841 0.095008
vt 0.712104 0.095008
vt 0.447843 0.103256
vt 0.470769 0.103256
vt 0.469905 0.144498
vt 0.447843 0.144498
vt 0.447843 0.136249
vt 0.447843 0.128001
vt 0.495234 0.103256
vt 0.494544 0.144498
vt 0.514342 0.111504
vt 0.514700 0.103256
vt 0.518501 0.144498
vt 0.515156 0.136249
vt 0.530532 0.136249
vt 0.701044 0.103256
vt 0.696352 0.103256
vt 0.696603 0.095008
vt 0.701297 0.095008
vt 0.705749 0.111504
vt 0.700965 0.111504
vt 0.705831 0.103256
vt 0.706091 0.095008
vt 0.709509 0.103256
vt 0.709509 0.095008
vt 0.710760 0.086760
vt 0.717782 0.095008
vt 0.717782 0.103256
vn -0.6390 -0.3614 0.6791
vn -0.7056 -0.3152 0.6347
vn -0.6703 -0.4230 0.6097
vn -0.3978 -0.3614 0.8433
vn -0.5341 -0.3160 0.7842
vn -0.5098 -0.4241 0.7485
vn -0.1178 -0.3614 0.9249
vn -0.2656 -0.3160 0.9108
vn -0.2535 -0.4241 0.8694
vn 0.1738 -0.3614 0.9161
vn 0.0289 -0.3160 0.9483
vn 0.0275 -0.4241 0.9052
vn 0.4115 -0.4298 0.8037
vn 0.2852 -0.3319 0.8992
vn 0.3059 -0.4241 0.8524
vn 0.1158 -0.1968 0.9736
vn 0.2677 0.1039 0.9579
vn 0.3863 -0.0873 0.9183
vn 0.5099 0.0547 0.8585
vn -0.5043 -0.4541 0.7345
vn -0.4680 -0.1929 0.8624
vn -0.3720 -0.4651 0.8033
vn 0.0202 -0.4575 0.8890
vn 0.1712 -0.4651 0.8685
vn -0.0034 0.0546 0.9985
vn -0.2555 -0.4575 0.8517
vn -0.1860 -0.1799 0.9659
vn -0.1056 -0.4651 0.8789
vn 0.7971 0.4725 0.3760
vn 0.8261 0.4713 0.3090
vn 0.7285 0.4723 0.4962
vn 0.6418 0.4725 0.6039
vn 0.5901 0.4713 0.6555
vn -0.6700 -0.4963 0.5521
vn -0.7025 -0.4541 0.5480
vn -0.6055 -0.4682 0.6435
vn -0.6005 -0.4818 0.6382
vn -0.7779 -0.4452 0.4436
vn -0.7192 -0.5158 0.4655
vn -0.7205 -0.2134 0.6598
vn -0.6694 -0.2139 0.7114
vn -0.7365 -0.0722 0.6726
vn -0.6835 -0.0727 0.7264
vn -0.6838 0.0666 0.7267
vn -0.7378 0.0663 0.6718
vn -0.6728 0.1900 0.7150
vn -0.7270 0.1895 0.6600
vn -0.4920 -0.4857 0.7225
vn -0.3739 -0.4818 0.7925
vn -0.5499 -0.2141 0.8074
vn -0.4168 -0.2139 0.8835
vn -0.5614 -0.0724 0.8244
vn -0.4255 -0.0727 0.9020
vn -0.4496 0.0459 0.8921
vn -0.5617 0.0666 0.8247
vn -0.4875 0.1895 0.8523
vn -0.5526 0.1900 0.8115
vn -0.2447 -0.4857 0.8392
vn -0.1107 -0.4818 0.8693
vn -0.2735 -0.2141 0.9378
vn -0.1234 -0.2139 0.9690
vn -0.2792 -0.0724 0.9575
vn -0.1260 -0.0727 0.9894
vn -0.1263 0.0047 0.9920
vn -0.2799 0.0047 0.9600
vn 0.0266 -0.4857 0.8737
vn 0.1633 -0.4818 0.8609
vn 0.0297 -0.2141 0.9764
vn 0.1561 -0.2353 0.9593
vn 0.0303 -0.0724 0.9969
vn 0.1112 -0.0725 0.9912
vn 0.1116 0.0047 0.9937
vn 0.0304 0.0047 0.9995
vn 0.2953 -0.4857 0.8227
vn 0.2732 -0.4775 0.8351
vn 0.4117 -0.5168 0.7506
vn 0.4214 -0.4818 0.7683
vn 0.2472 -0.2776 0.9283
vn 0.4655 -0.5158 0.7192
vn 0.4726 -0.4843 0.7363
vn -0.6515 0.3101 0.6924
vn -0.7041 0.3092 0.6392
vn -0.6370 0.3688 0.6769
vn -0.6885 0.3678 0.6250
vn -0.4721 0.3092 0.8255
vn -0.5352 0.3101 0.7858
vn -0.4617 0.3678 0.8072
vn -0.5232 0.3688 0.7683
vn -0.8262 -0.2078 0.5236
vn -0.8329 -0.4164 0.3645
vn -0.8879 -0.2480 0.3873
vn -0.8950 0.1210 0.4294
vn -0.6603 -0.1842 0.7281
vn -0.5008 0.0360 0.8648
vn -0.7369 0.0728 0.6721
vn -0.2177 0.0677 0.9737
vn 0.5618 0.0914 0.8222
vn 0.4793 -0.4503 0.7533
vn -0.2111 0.4467 0.8694
vn -0.3845 0.7745 0.5023
vn -0.3508 0.7922 0.4993
vn -0.0663 0.1099 0.9917
vn -0.1296 0.2147 0.9680
vn -0.1937 0.3697 0.9087
vn 0.0020 -0.0027 1.0000
vn 0.0007 -0.0020 1.0000
vn 0.1979 -0.4581 0.8666
vn 0.2144 -0.4592 0.8621
vn -0.5593 -0.7279 0.3965
vn -0.4429 -0.5691 0.6928
vn -0.5230 -0.5068 0.6854
vn -0.5184 -0.8267 0.2186
vn -0.6676 -0.7402 0.0797
vn 0.2785 -0.6458 0.7109
vn 0.2826 -0.6473 0.7080
vn -0.3911 0.8834 0.2583
vn -0.3802 0.8882 0.2578
vn -0.3428 0.7972 0.4969
vn -0.1993 0.4600 0.8653
vn 0.3153 -0.6308 0.7090
vn -0.4229 0.8677 0.2611
vn 0.2054 -0.4019 0.8923
vn 0.3186 -0.6248 0.7129
vn -0.4735 0.8437 0.2531
vn -0.4309 0.7978 0.4217
vn -0.5001 0.8312 0.2430
vn -0.8746 -0.3042 0.3775
vn -0.9537 -0.2105 0.2146
vn -0.9266 -0.3067 0.2175
vn -0.6369 -0.3572 0.6832
vn -0.6799 -0.2826 0.6767
vn -0.7705 -0.4385 0.4626
vn -0.8422 -0.4909 0.2231
vn -0.6674 -0.5820 0.4646
vn -0.7363 -0.6715 0.0838
vn -0.6776 -0.6817 -0.2759
vn -0.4693 -0.8530 0.2284
usemtl pot_texture
s 1
f 95/1/1 102/2/2 101/3/3
f 94/4/4 104/5/5 100/6/6
f 104/5/5 95/1/1 100/6/6
f 93/7/7 106/8/8 99/9/9
f 106/8/8 94/4/4 99/9/9
f 92/10/10 108/11/11 98/12/12
f 108/11/11 93/7/7 98/12/12
f 91/13/13 110/14/14 97/15/15
f 110/14/14 92/10/10 97/15/15
f 83/16/16 81/17/17 84/18/18
f 84/18/18 81/17/17 21/19/19
f 38/20/20 89/21/21 37/22/22
f 34/23/23 83/16/16 33/24/24
f 83/16/16 82/25/25 81/17/17
f 36/26/26 90/27/27 35/28/28
f 64/29/29 9/30/29 72/31/30 27/32/30
f 71/33/31 9/30/29 64/29/29 28/34/31
f 65/35/32 10/36/32 71/33/31 28/34/31
f 70/37/33 10/36/32 65/35/32 30/38/33
f 51/39/34 40/40/35 39/41/36 49/42/37
f 41/43/38 40/40/35 51/39/34 50/44/39
f 52/45/40 102/2/2 95/1/1 7/46/41
f 80/47/42 18/48/43 76/49/44 103/50/45
f 103/50/45 76/49/44 6/51/46 53/52/47
f 54/53/48 38/20/20 37/22/22 47/54/49
f 39/41/36 38/20/20 54/53/48 49/42/37
f 55/55/50 104/5/5 94/4/4 5/56/51
f 95/1/1 104/5/5 55/55/50 7/46/41
f 79/57/52 17/58/53 75/59/54 105/60/55
f 105/60/55 75/59/54 4/61/56 56/62/57
f 6/51/46 76/49/44 105/60/55 56/62/57
f 76/49/44 18/48/43 79/57/52 105/60/55
f 57/63/58 36/26/26 35/28/28 45/64/59
f 37/22/22 36/26/26 57/63/58 47/54/49
f 58/65/60 106/8/8 93/7/7 3/66/61
f 94/4/4 106/8/8 58/65/60 5/56/51
f 78/67/62 16/68/63 74/69/64 107/70/65
f 75/59/54 17/58/53 78/67/62 107/70/65
f 59/71/66 34/23/23 33/24/24 44/72/67
f 35/28/28 34/23/23 59/71/66 45/64/59
f 60/73/68 108/11/11 92/10/10 2/74/69
f 93/7/7 108/11/11 60/73/68 3/66/61
f 77/75/70 15/76/71 73/77/72 109/78/73
f 74/69/64 16/68/63 77/75/70 109/78/73
f 61/79/74 32/80/75 31/81/76 43/82/77
f 33/24/24 32/80/75 61/79/74 44/72/67
f 92/10/10 110/14/14 62/83/78 2/74/69
f 31/81/76 29/84/79 63/85/80 43/82/77
f 53/52/47 6/51/46 48/86/81 112/87/82
f 112/87/82 48/86/81 12/88/83 68/89/84
f 56/62/57 4/61/56 46/90/85 113/91/86
f 113/91/86 46/90/85 11/92/87 69/93/88
f 12/88/83 48/86/81 113/91/86 69/93/88
f 48/86/81 6/51/46 56/62/57 113/91/86
f 77/75/70 60/73/68 2/74/69 15/76/71
f 3/66/61 60/73/68 77/75/70 16/68/63
f 78/67/62 58/65/60 3/66/61 16/68/63
f 5/56/51 58/65/60 78/67/62 17/58/53
f 79/57/52 55/55/50 5/56/51 17/58/53
f 7/46/41 55/55/50 79/57/52 18/48/43
f 80/47/42 52/45/40 7/46/41 18/48/43
f 83/16/16 84/18/18 32/80/75 33/24/24
f 86/94/89 41/43/38 42/95/90 85/96/91
f 86/94/89 85/96/91 25/97/92
f 88/98/93 89/21/21 38/20/20 39/41/36
f 23/99/94 89/21/21 88/98/93 24/100/95
f 90/27/27 83/16/16 34/23/23 35/28/28
f 82/25/25 83/16/16 90/27/27 22/101/96
f 20/102/97 87/103/97 84/18/18 21/19/19
f 88/98/93 39/41/36 40/40/35 86/94/89
f 40/40/35 41/43/38 86/94/89
f 86/94/89 25/97/92 24/100/95
f 88/98/93 86/94/89 24/100/95
f 89/21/21 90/27/27 36/26/26 37/22/22
f 22/101/96 90/27/27 89/21/21 23/99/94
f 43/82/77 63/85/80 96/104/98 91/13/13
f 97/15/15 61/79/74 43/82/77 91/13/13
f 44/72/67 61/79/74 97/15/15 92/10/10
f 98/12/12 59/71/66 44/72/67 92/10/10
f 45/64/59 59/71/66 98/12/12 93/7/7
f 99/9/9 57/63/58 45/64/59 93/7/7
f 47/54/49 57/63/58 99/9/9 94/4/4
f 100/6/6 54/53/48 47/54/49 94/4/4
f 49/42/37 54/53/48 100/6/6 95/1/1
f 101/3/3 51/39/34 49/42/37 95/1/1
f 127/105/99 132/106/100 126/107/101
f 138/108/102 142/109/103 137/110/104
f 128/111/105 120/112/106 115/113/107 121/114/108
f 156/115/109 158/116/110 152/117/111
f 159/118/112 156/115/109 157/119/113
f 121/114/108 115/113/107 116/120/114 122/121/115
f 125/122/116 117/123/117 118/124/118 126/107/101
f 126/107/101 118/124/118 119/125/119 127/105/99
f 127/105/99 119/125/119 120/112/106 128/111/105
f 122/121/115 129/126/120 121/114/108
f 131/127/121 125/122/116 126/107/101 132/106/100
f 138/108/102 128/111/105 121/114/108 133/128/122
f 133/128/122 121/114/108 129/126/120 134/129/123
f 135/130/124 131/127/121 132/106/100 136/131/125
f 136/131/125 132/106/100 127/105/99 137/110/104
f 137/110/104 127/105/99 128/111/105 138/108/102
f 136/131/125 141/132/126 135/130/124
f 147/133/127 144/134/128 145/135/128 148/136/129
f 149/137/130 146/138/131 147/133/127 150/139/132
f 150/139/132 147/133/127 148/136/129 151/140/133
f 152/117/111 149/137/130 150/139/132 153/141/134
f 153/141/134 150/139/132 151/140/133 154/142/135
f 153/141/134 154/142/135 157/119/113 156/115/109
f 153/141/134 156/115/109 152/117/111
f 155/143/136 157/119/113 154/142/135
f 156/115/109 159/118/112 161/144/137 160/145/137
l 1 26
l 27 1
l 66 8
l 14 67
l 67 8
l 68 13
l 67 111
l 87 114
l 19 114
l 123 124
l 129 130
l 133 139
l 134 140
l 135 143
l 161 162
l 163 164
