# Blender v2.90.1 OBJ File: '陶花瓶吊兰.blend'
# www.blender.org
mtllib 陶花瓶吊兰16.mtl
o pot.016_NurbsPath.017
v -0.726226 1.368762 3.743490
v -1.923053 1.368762 3.287535
v -3.620660 1.368762 1.411700
v -3.955262 1.368761 0.175441
v -3.891462 1.368763 -1.103710
v -3.435507 1.368763 -2.300537
v -2.857780 1.367315 -3.059689
v 0.955739 1.368761 -4.268943
v 1.856262 1.367314 -3.954084
v -3.385807 0.432477 3.457577
v 0.760033 0.432478 -5.330093
v -1.178042 0.078125 -4.637405
v -1.384622 2.640450 -4.440434
v -0.719064 2.709276 -4.657496
v -0.020255 2.640449 -4.699295
v 0.679804 2.709278 -4.700065
v 1.357330 2.640448 -4.523873
v 2.023364 2.709281 -4.308277
v 2.613281 2.640450 -3.931341
v -2.135160 1.368762 -3.682509
v -0.968274 1.368761 -4.210394
v -0.009389 1.367315 -4.342272
v 2.671898 1.368762 -3.459295
v 3.534537 1.368763 -2.512641
v 1.847872 1.760580 -3.936299
v 0.887941 1.760142 -4.261739
v -0.900163 1.760141 -4.207325
v 2.709452 1.760141 -3.402386
v 4.640489 0.806260 -0.121888
v -0.026085 0.806258 4.263006
v -1.417721 0.806259 3.997979
v -2.659344 0.806259 3.315886
v -3.629423 0.806258 2.283494
v -4.232997 0.806259 1.001854
v -4.410980 0.806260 -0.403569
v -4.145953 0.806259 -1.795201
v -3.463858 0.806260 -3.036828
v -2.431462 0.806259 -4.006908
v -1.149825 0.806260 -4.610480
v 0.255598 0.806259 -4.788461
v 1.647231 0.806259 -4.523434
v 2.888861 0.806260 -3.841336
v 3.858936 0.806259 -2.808942
v 4.462506 0.806258 -1.527310
v -3.878069 1.062519 -1.761888
v -4.106159 1.058654 -0.800215
v 4.009031 1.062519 -2.001903
v -3.219379 1.062518 -2.922366
v -0.767213 1.062520 3.910072
v -1.624421 1.062519 -4.157004
v -2.013512 1.062518 3.433298
v -0.678396 1.058653 -4.443149
v 0.306695 1.062519 -4.523395
v -3.779520 1.062520 1.476452
v 1.613919 1.062519 -4.255550
v -4.126357 1.062520 0.187933
v 2.774396 1.062517 -3.596860
v 0.270154 0.427915 4.843777
v -1.315448 0.427915 4.641869
v -2.761053 0.427914 3.959864
v -3.925154 0.427913 2.864522
v -4.693800 0.427915 1.463063
v -4.789841 0.427914 -1.692932
v -4.107836 0.427914 -3.138537
v -3.012493 0.427914 -4.302638
v -1.611033 0.427915 -5.071283
v -0.040641 0.427913 -5.369233
v 1.544962 0.427914 -5.167321
v 2.990567 0.427914 -4.485315
v 4.154666 0.427915 -3.389972
v 4.923310 0.427914 -1.988516
v -4.364115 0.432479 2.193758
v 2.294355 0.432477 -4.882677
v -4.903999 0.432478 0.689481
v 3.615319 0.432478 -3.983028
v -4.952613 0.432478 -0.908002
v 4.593626 0.432477 -2.719208
v -4.505197 0.432478 -2.442326
v 1.066967 0.432477 4.756025
v 5.133508 0.432478 -1.214936
v -3.605549 0.432478 -3.763289
v -0.530520 0.432478 4.804638
v -2.341727 0.432479 -4.741598
v -2.064839 0.432479 4.357225
v -0.837452 0.432479 -5.281481
v -1.932001 0.235310 -4.979725
v -3.289460 0.235309 -4.116375
v -2.498315 0.235311 4.165720
v -0.374200 0.235309 -5.381341
v -3.738892 0.235310 3.141490
v 1.231476 0.235310 -5.281912
v -4.602241 0.235310 1.784033
v 2.727831 0.235311 -4.691170
v -5.003860 0.235309 0.226230
v 3.628626 0.235337 -3.997168
v -4.313691 0.235309 -2.875801
v -0.008792 1.760581 -4.322618
v -2.489753 1.058654 -3.627339
v 3.479368 1.058653 -2.867232
vt 0.812826 0.917244
vt 0.798389 0.940599
vt 0.788391 0.915369
vt 0.605399 0.950212
vt 0.580213 0.958855
vt 0.556530 0.950212
vt 0.947700 0.958855
vt 0.968994 0.967839
vt 0.920125 0.967839
vt 0.629082 0.958855
vt 0.641783 0.950212
vt 0.703354 0.958855
vt 0.675779 0.967839
vt 0.666218 0.958855
vt 0.361269 0.958855
vt 0.333694 0.967839
vt 0.312399 0.958855
vt 0.284825 0.967839
vt 0.739522 0.958855
vt 0.724648 0.967839
vt 0.800876 0.950212
vt 0.775690 0.958855
vt 0.763956 0.950212
vt 0.824559 0.958855
vt 0.837260 0.950212
vt 0.507877 0.958855
vt 0.529172 0.967839
vt 0.480302 0.967839
vt 0.910564 0.958855
vt 0.773518 0.967839
vt 0.822387 0.967839
vt 0.788391 0.984826
vt 0.837260 0.984826
vt 0.812826 0.984902
vt 0.431433 0.967839
vt 0.446306 0.984826
vt 0.495175 0.984826
vt 0.470741 0.984902
vt 0.871256 0.967839
vt 0.886129 0.984826
vt 0.861695 0.984902
vt 0.934999 0.984826
vt 0.910564 0.984902
vt 0.592914 0.984826
vt 0.568480 0.984902
vt 0.578041 0.967839
vt 0.983868 0.984826
vt 0.959433 0.984902
vt 0.626910 0.967839
vt 0.641783 0.984826
vt 0.617349 0.984902
vt 0.299698 0.984826
vt 0.275264 0.984902
vt 0.690653 0.984826
vt 0.666218 0.984902
vt 0.348567 0.984826
vt 0.324133 0.984902
vt 0.739522 0.984826
vt 0.715087 0.984902
vt 0.006483 0.967985
vt 0.040479 0.967839
vt 0.006483 0.984826
vt 0.763956 0.984902
vt 0.837260 0.940599
vt 0.837260 0.915369
vt 0.715087 0.917244
vt 0.739522 0.915369
vt 0.729523 0.940599
vt 0.861695 0.917244
vt 0.876131 0.940599
vt 0.873644 0.950212
vt 0.763956 0.917244
vt 0.763956 0.940599
vt 0.727036 0.950212
vt 0.678167 0.950212
vt 0.312184 0.950212
vt 0.361053 0.950212
vt 0.459007 0.958855
vt 0.458792 0.950212
vt 0.507661 0.950212
vt 0.873428 0.958855
vt 0.922513 0.950212
vt 0.487252 0.239586
vt 0.494728 0.235217
vt 0.512861 0.235217
vt 0.523518 0.239586
vt 0.250829 0.984826
vt 0.476595 0.235217
vt 0.530993 0.235217
vt 0.549126 0.235217
vt 0.559783 0.239586
vt 0.567259 0.235217
vt 0.585392 0.235217
vt 0.596049 0.239586
vt 0.603525 0.235217
vt 0.621658 0.235217
vt 0.632315 0.239586
vt 0.331532 0.235217
vt 0.349665 0.235217
vt 0.342189 0.239586
vt 0.639791 0.235217
vt 0.657924 0.235217
vt 0.657924 0.239586
vt 0.450986 0.239586
vt 0.458462 0.235217
vn 0.2633 -0.3947 -0.8803
vn 0.1873 -0.1831 -0.9651
vn 0.1122 -0.3915 -0.9133
vn -0.7846 0.4330 -0.4438
vn -0.7084 0.6228 -0.3320
vn -0.7568 0.5866 -0.2883
vn 0.6973 0.6217 -0.3567
vn 0.5329 0.8286 -0.1719
vn 0.4991 0.7967 -0.3408
vn -0.6132 0.6180 -0.4920
vn -0.6099 0.5049 -0.6108
vn -0.3248 0.6215 -0.7129
vn -0.3408 0.7967 -0.4991
vn -0.5108 0.6024 -0.6134
vn -0.2946 0.5643 0.7713
vn -0.1796 0.7986 0.5745
vn -0.2162 0.6064 0.7652
vn -0.0473 0.8263 0.5613
vn -0.1218 0.6016 -0.7895
vn -0.1667 0.7977 -0.5796
vn 0.2018 0.2483 -0.9474
vn 0.0400 0.6200 -0.7836
vn -0.0430 0.2884 -0.9565
vn 0.2802 0.6219 -0.7313
vn 0.4260 0.2820 -0.8596
vn -0.7702 0.6303 0.0975
vn 0.6055 0.6124 -0.5083
vn 0.0162 0.7889 -0.6144
vn 0.2023 0.7935 -0.5740
vn 0.0758 0.8492 -0.5226
vn 0.2336 0.8492 -0.4736
vn 0.1422 0.8434 -0.5182
vn -0.4636 0.8588 0.2183
vn -0.5015 0.8449 0.1860
vn -0.4696 0.8559 0.2167
vn -0.5335 0.8324 0.1499
vn -0.5028 0.8434 0.1895
vn 0.3719 0.7897 -0.4878
vn 0.3685 0.8492 -0.3782
vn 0.2954 0.8434 -0.4489
vn 0.4673 0.8492 -0.2458
vn 0.4196 0.8434 -0.3356
vn -0.4736 0.8492 -0.2336
vn -0.5197 0.8324 -0.1923
vn -0.5365 0.8002 -0.2679
vn 0.5189 0.8491 -0.0986
vn 0.5028 0.8434 -0.1895
vn -0.4878 0.7897 -0.3719
vn -0.3782 0.8492 -0.3685
vn -0.4489 0.8434 -0.2954
vn -0.0758 0.8492 0.5226
vn 0.0249 0.8434 0.5367
vn -0.2458 0.8492 -0.4673
vn -0.3356 0.8434 -0.4196
vn -0.1923 0.8324 0.5197
vn -0.1422 0.8434 0.5182
vn -0.0894 0.8492 -0.5204
vn -0.1895 0.8434 -0.5028
vn 0.5083 0.8588 -0.0644
vn -0.0249 0.8434 -0.5367
vn 0.4196 -0.1813 -0.8894
vn 0.3896 -0.4078 -0.8258
vn -0.2522 -0.3750 -0.8921
vn -0.1675 -0.3915 -0.9048
vn -0.1489 -0.1977 -0.9689
vn 0.4718 -0.4060 -0.7827
vn 0.5133 -0.1588 -0.8434
vn 0.5497 0.3483 -0.7593
vn -0.0278 -0.4026 -0.9150
vn -0.0299 -0.1885 -0.9816
vn -0.1881 0.3079 -0.9326
vn -0.5153 0.4340 -0.7390
vn -0.3121 0.4839 0.8176
vn -0.8449 0.4839 0.2280
vn 0.4955 0.6075 -0.6208
vn 0.7331 0.4446 -0.5147
vn -0.6572 0.1515 -0.7383
vn -0.5634 -0.0178 -0.8260
vn -0.5243 -0.0319 -0.8509
vn -0.3969 0.1515 -0.9053
vn 0.0531 0.8489 0.5259
vn -0.7616 -0.0319 -0.6473
vn -0.2805 -0.0178 -0.9597
vn -0.2357 -0.0319 -0.9713
vn -0.0978 0.1515 -0.9836
vn 0.0297 -0.0178 -0.9994
vn 0.0760 -0.0319 -0.9966
vn 0.2110 0.1515 -0.9657
vn 0.3371 -0.0178 -0.9413
vn 0.3802 -0.0319 -0.9243
vn 0.4944 0.1715 -0.8522
vn -0.8849 0.2422 0.3978
vn 0.5956 0.0829 -0.7990
vn 0.6162 0.0493 -0.7860
vn -0.7718 -0.0718 -0.6318
usemtl pot_texture
s 1
f 17/1/1 26/2/2 16/3/3
f 6/4/4 45/5/5 5/6/6
f 47/7/7 44/8/8 43/9/9
f 6/4/4 48/10/10 45/5/5
f 7/11/11 48/10/10 6/4/4
f 50/12/12 38/13/13 98/14/14
f 51/15/15 31/16/16 49/17/17
f 49/17/17 31/16/16 30/18/18
f 52/19/19 39/20/20 50/12/12
f 50/12/12 39/20/20 38/13/13
f 8/21/21 53/22/22 22/23/23
f 8/21/21 55/24/24 53/22/22
f 9/25/25 55/24/24 8/21/21
f 56/26/26 35/27/26 34/28/26
f 47/7/7 43/9/9 99/29/27
f 40/30/28 41/31/29 11/32/30
f 73/33/31 68/34/32 41/31/29
f 33/35/33 34/28/34 72/36/35
f 74/37/36 62/38/37 34/28/34
f 41/31/29 42/39/38 73/33/31
f 75/40/39 69/41/40 42/39/38
f 42/39/38 43/9/9 75/40/39
f 77/42/41 70/43/42 43/9/9
f 78/44/43 63/45/44 36/46/45
f 43/9/9 44/8/8 77/42/41
f 80/47/46 71/48/47 44/8/8
f 36/46/45 37/49/48 78/44/43
f 81/50/49 64/51/50 37/49/48
f 82/52/51 58/53/52 30/18/18
f 37/49/48 38/13/13 81/50/49
f 83/54/53 65/55/54 38/13/13
f 30/18/18 31/16/16 82/52/51
f 84/56/55 59/57/56 31/16/16
f 38/13/13 39/20/20 83/54/53
f 85/58/57 66/59/58 39/20/20
f 44/60/8 29/61/59 80/62/46
f 39/20/20 40/30/28 85/58/57
f 11/32/30 67/63/60 40/30/28
f 25/64/61 26/2/2 17/1/1 18/65/62
f 8/21/21 26/2/2 25/64/61 9/25/25
f 13/66/63 14/67/64 27/68/65
f 25/64/61 18/65/62 19/69/66 28/70/67
f 23/71/68 9/25/25 25/64/61 28/70/67
f 27/68/65 14/67/64 15/72/69 97/73/70
f 26/2/2 97/73/70 15/72/69 16/3/3
f 22/23/23 97/73/70 26/2/2 8/21/21
f 22/23/23 21/74/71 27/68/65 97/73/70
f 37/49/48 36/46/45 45/5/5 48/10/10
f 98/14/14 48/10/10 7/11/11 20/75/72
f 38/13/13 37/49/48 48/10/10 98/14/14
f 20/75/72 50/12/12 98/14/14
f 49/17/17 1/76/73 2/77/73 51/15/15
f 21/74/71 52/19/19 50/12/12
f 53/22/22 52/19/19 21/74/71 22/23/23
f 40/30/28 39/20/20 52/19/19 53/22/22
f 41/31/29 40/30/28 53/22/22 55/24/24
f 54/78/74 3/79/74 4/80/74 56/26/74
f 57/81/75 55/24/24 9/25/25 23/71/68
f 42/39/38 41/31/29 55/24/24 57/81/75
f 99/29/27 57/81/75 23/71/68 24/82/76
f 43/9/9 42/39/38 57/81/75 99/29/27
f 24/82/76 47/7/7 99/29/27
f 87/83/77 65/84/78 83/85/79 86/86/80
f 11/32/30 41/31/29 68/34/32
f 72/36/35 34/28/34 62/38/37
f 73/33/31 42/39/38 69/41/40
f 75/40/39 43/9/9 70/43/42
f 77/42/41 44/8/8 71/48/47
f 78/44/43 37/49/48 64/51/50
f 79/87/81 30/18/18 58/53/52
f 81/50/49 38/13/13 65/55/54
f 82/52/51 31/16/16 59/57/56
f 83/54/53 39/20/20 66/59/58
f 85/58/57 40/30/28 67/63/60
f 81/88/82 65/84/78 87/83/77
f 86/86/80 66/89/83 85/90/84 89/91/85
f 83/85/79 66/89/83 86/86/80
f 89/91/85 67/92/86 11/93/87 91/94/88
f 85/90/84 67/92/86 89/91/85
f 91/94/88 68/95/89 73/96/90 93/97/91
f 11/93/87 68/95/89 91/94/88
f 72/98/92 62/99/92 92/100/92
f 93/97/91 69/101/93 75/102/94 95/103/94
f 73/96/90 69/101/93 93/97/91
f 96/104/95 64/105/95 81/88/82 87/83/77
l 4 5
l 32 33
l 84 88
l 89 12
l 46 56
l 76 35
l 76 36
l 10 32
l 60 32
l 92 90
l 94 92
l 61 72
l 34 54
l 60 84
