# Blender v2.90.1 OBJ File: '陶花瓶吊兰.blend'
# www.blender.org
mtllib 陶花瓶吊兰17.mtl
o pot.017_NurbsPath.018
v -3.955262 1.368761 0.175441
v -3.891462 1.368763 -1.103710
v -3.385807 0.432477 3.457577
v 0.266254 0.003841 0.535768
v 0.012089 0.003842 0.543503
v -0.232025 0.003841 0.472319
v -0.442194 0.003842 0.329182
v 0.217419 0.003841 -1.068958
v 0.461534 0.003842 -0.997773
v -2.961878 0.078768 -3.560508
v -2.659344 0.806259 3.315886
v -3.629423 0.806258 2.283494
v -4.232997 0.806259 1.001854
v -4.410980 0.806260 -0.403569
v -4.145953 0.806259 -1.795201
v -3.878069 1.062519 -1.761888
v -4.106159 1.058654 -0.800215
v -3.779520 1.062520 1.476452
v -4.126357 1.062520 0.187933
v -2.761053 0.427914 3.959864
v -3.925154 0.427913 2.864522
v -4.693800 0.427915 1.463063
v -4.991751 0.427914 -0.107329
v -4.789841 0.427914 -1.692932
v -4.107836 0.427914 -3.138537
v -4.364115 0.432479 2.193758
v -4.903999 0.432478 0.689481
v -4.952613 0.432478 -0.908002
v -4.505197 0.432478 -2.442326
v -2.064839 0.432479 4.357225
v -3.289460 0.235309 -4.116375
v -2.498315 0.235311 4.165720
v -3.738892 0.235310 3.141490
v -4.602241 0.235310 1.784033
v -5.003860 0.235309 0.226230
v -4.904431 0.235311 -1.379445
v -4.313691 0.235309 -2.875801
v 0.139475 0.003841 0.549616
v 0.342272 0.003841 -1.042951
v -0.591836 0.012500 2.752034
v -2.970803 0.012499 -0.003122
v -0.640225 0.011489 -3.340562
v 2.969071 0.012500 -1.463116
vt 0.556530 0.950212
vt 0.580213 0.958855
vt 0.544044 0.958855
vt 0.382564 0.967839
vt 0.431433 0.967839
vt 0.397437 0.984826
vt 0.446306 0.984826
vt 0.421872 0.984902
vt 0.459007 0.958855
vt 0.480302 0.967839
vt 0.529172 0.967839
vt 0.507877 0.958855
vt 0.495175 0.984826
vt 0.544044 0.984826
vt 0.519610 0.984902
vt 0.578041 0.967839
vt 0.373003 0.984902
vt 0.507661 0.950212
vt 0.568480 0.984902
vt 0.269657 0.239586
vt 0.277133 0.235217
vt 0.295266 0.235217
vt 0.305923 0.239586
vt 0.259001 0.235217
vt 0.313399 0.235217
vt 0.331532 0.235217
vt 0.342189 0.239586
vt 0.349665 0.235217
vt 0.367798 0.235217
vt 0.378454 0.239586
vt 0.385930 0.235217
vt 0.404064 0.235217
vt 0.414720 0.239586
vt 0.422196 0.235217
vt 0.440329 0.235217
vt 0.450986 0.239586
vt 0.458462 0.235217
vn -0.8815 0.4463 -0.1541
vn -0.7599 0.6290 -0.1640
vn -0.7851 0.6114 -0.0991
vn -0.3590 0.8466 0.3929
vn -0.4195 0.8449 0.3318
vn -0.3685 0.8492 0.3782
vn -0.4611 0.8324 0.3074
vn -0.4196 0.8434 0.3356
vn -0.7024 0.6303 0.3308
vn -0.5868 0.8092 -0.0304
vn -0.8060 0.5912 -0.0283
vn -0.5083 0.8587 0.0644
vn -0.5136 0.8559 0.0610
vn -0.5226 0.8492 -0.0758
vn -0.5367 0.8434 0.0249
vn -0.6257 0.7693 -0.1293
vn -0.3435 0.8324 0.4348
vn -0.8546 0.5182 -0.0325
vn -0.5166 0.8489 -0.1121
vn -0.5161 0.1835 0.8367
vn -0.6115 -0.0178 0.7910
vn -0.6473 -0.0319 0.7616
vn -0.7383 0.1515 0.6572
vn -0.4821 0.2422 0.8420
vn -0.8260 -0.0178 0.5634
vn -0.8394 -0.0718 0.5388
vn -0.9648 -0.0718 0.2530
vn -0.9713 -0.0319 0.2357
vn -0.9836 0.1515 0.0978
vn -0.9994 -0.0178 -0.0297
vn -0.9966 -0.0319 -0.0760
vn -0.9657 0.1515 -0.2110
vn -0.9413 -0.0178 -0.3371
vn -0.9243 -0.0319 -0.3802
vn -0.8621 0.1957 -0.4675
vn -0.8420 0.2422 -0.4821
usemtl pot_texture
s 1
f 2/1/1 16/2/2 17/3/3
f 11/4/4 12/5/5 3/6/6
f 26/7/7 21/8/8 12/5/5
f 18/9/9 13/10/9 12/5/9
f 17/3/3 14/11/10 19/12/11
f 13/10/12 14/11/10 27/13/13
f 28/14/14 23/15/15 14/11/10
f 14/11/10 15/16/16 28/14/14
f 3/6/6 20/17/17 11/4/4
f 15/16/16 14/11/10 17/3/3 16/2/2
f 3/6/6 12/5/5 21/8/8
f 19/12/11 1/18/18 2/1/1 17/3/3
f 27/13/13 14/11/10 23/15/15
f 28/14/14 15/16/16 24/19/19
f 32/20/20 20/21/21 3/22/22 33/23/23
f 30/24/24 20/21/21 32/20/20
f 33/23/23 21/25/25 26/26/26 34/27/26
f 3/22/22 21/25/25 33/23/23
f 34/27/27 22/28/27 27/29/28 35/30/29
f 35/30/29 23/31/30 28/32/31 36/33/32
f 27/29/28 23/31/30 35/30/29
f 36/33/32 24/34/33 29/35/34 37/36/35
f 28/32/31 24/34/33 36/33/32
f 29/35/34 25/37/36 37/36/35
l 10 31
l 40 4
l 40 5
l 40 6
l 40 7
l 42 8
l 42 9
l 38 40
l 40 41
l 39 42
l 42 43
