# Blender v2.90.1 OBJ File: '陶花瓶吊兰.blend'
# www.blender.org
mtllib 陶花瓶吊兰15.mtl
o pot.015_NurbsPath.016
v 4.184770 1.368762 -0.700894
v 4.120973 1.368762 0.578250
v 3.665017 1.368762 1.775080
v 2.861539 1.368761 2.772434
v 2.077496 1.367315 3.315904
v -0.726226 1.368762 3.743490
v -1.923053 1.368762 3.287535
v -3.891462 1.368763 -1.103710
v -3.435507 1.368763 -2.300537
v -2.857780 1.367315 -3.059689
v 5.182121 0.432478 0.382546
v 0.913251 0.003842 -0.414228
v 0.920985 0.003841 -0.160062
v 0.849800 0.003842 0.084053
v 0.706664 0.003842 0.294221
v 0.505588 0.003841 0.449871
v 0.266254 0.003841 0.535768
v 0.012089 0.003842 0.543503
v -0.232025 0.003841 0.472319
v -0.442194 0.003842 0.329182
v -0.597845 0.003842 0.128106
v -0.683742 0.003842 -0.111229
v -0.691477 0.003842 -0.365392
v -0.620291 0.003842 -0.609506
v -0.477155 0.003841 -0.819676
v -0.276078 0.003841 -0.975328
v -0.036745 0.003841 -1.061224
v 0.217419 0.003841 -1.068958
v 0.461534 0.003842 -0.997773
v 0.671703 0.003841 -0.854636
v 0.827354 0.003842 -0.653560
v 4.413830 0.078125 1.262746
v 3.191392 0.078768 3.035048
v 1.407552 0.078127 4.111948
v -1.410721 0.078126 4.036348
v -3.183024 0.078768 2.813908
v -4.259923 0.078126 1.030071
v -4.184321 0.078125 -1.788201
v -2.961878 0.078768 -3.560508
v -1.178042 0.078125 -4.637405
v 0.974316 0.078769 -4.690161
v 2.894058 0.078126 -3.879991
v 4.489431 0.078126 -1.555526
v 0.679804 2.709278 -4.700065
v 1.357330 2.640448 -4.523873
v 2.023364 2.709281 -4.308277
v 2.613281 2.640450 -3.931341
v 1.197785 1.368762 3.684938
v 0.238903 1.367315 3.816817
v 2.671898 1.368762 -3.459295
v 3.534537 1.368763 -2.512641
v 3.956269 1.367315 -1.641445
v 1.847872 1.760580 -3.936299
v 0.887941 1.760142 -4.261739
v 4.156968 1.760140 -0.763145
v 2.895562 1.760141 2.713349
v 3.902555 1.760142 1.234763
v 4.144093 1.760580 0.250364
v 2.709452 1.760141 -3.402386
v 4.640489 0.806260 -0.121888
v 4.375461 0.806259 1.269749
v 3.693368 0.806260 2.511373
v 2.660974 0.806259 3.481452
v 1.379336 0.806260 4.085023
v -0.026085 0.806258 4.263006
v 3.858936 0.806259 -2.808942
v 4.462506 0.806258 -1.527310
v -3.878069 1.062519 -1.761888
v 1.248832 1.062518 3.848719
v 2.160910 1.058654 3.467990
v 4.355867 1.062519 -0.713388
v 4.009031 1.062519 -2.001903
v -3.219379 1.062518 -2.922366
v -0.767213 1.062520 3.910072
v 4.287554 1.062519 0.619242
v 3.810778 1.062519 1.865543
v 2.972209 1.062519 2.903512
v 5.221260 0.427914 -0.418128
v 5.019351 0.427914 1.167475
v 4.337346 0.427915 2.613079
v 3.242005 0.427915 3.777180
v 1.840546 0.427915 4.545826
v 0.270154 0.427915 4.843777
v -1.315448 0.427915 4.641869
v 4.154666 0.427915 -3.389972
v 4.923310 0.427914 -1.988516
v 4.734706 0.432478 1.916866
v 3.835058 0.432478 3.237834
v 3.615319 0.432478 -3.983028
v 2.571241 0.432479 4.216141
v 4.593626 0.432477 -2.719208
v 1.066967 0.432477 4.756025
v 5.133508 0.432478 -1.214936
v -0.530520 0.432478 4.804638
v -2.064839 0.432479 4.357225
v -1.001963 0.235309 4.756457
v 0.603708 0.235311 4.855886
v -1.932001 0.235310 -4.979725
v -3.289460 0.235309 -4.116375
v -2.498315 0.235311 4.165720
v -0.374200 0.235309 -5.381341
v -3.738892 0.235310 3.141490
v 5.133939 0.235309 0.853990
v 5.233367 0.235310 -0.751682
v 1.231476 0.235310 -5.281912
v -4.602241 0.235310 1.784033
v 4.543200 0.235310 2.350344
v 2.727831 0.235311 -4.691170
v -5.003860 0.235309 0.226230
v 3.849200 0.235337 3.251139
v 3.628626 0.235337 -3.997168
v -4.904431 0.235311 -1.379445
v 2.992278 0.235310 3.998626
v 4.376114 0.235310 -3.140241
v -4.313691 0.235309 -2.875801
v 0.927098 0.003841 -0.287449
v 0.894979 0.003842 -0.035209
v 0.786485 0.003842 0.194757
v 0.612238 0.003842 0.379941
v 0.389294 0.003842 0.502218
v 0.139475 0.003841 0.549616
v -0.112763 0.003842 0.517497
v -0.342730 0.003842 0.409004
v -0.527915 0.003842 0.234756
v -0.650192 0.003842 0.011812
v -0.697590 0.003842 -0.238007
v -0.665470 0.003841 -0.490244
v -0.556976 0.003841 -0.720212
v -0.382729 0.003841 -0.905398
v -0.159784 0.003842 -1.027674
v 0.090033 0.003841 -1.075072
v 0.342272 0.003841 -1.042951
v 0.572239 0.003841 -0.934458
v 0.757424 0.003841 -0.760210
v 0.879700 0.003841 -0.537267
v 2.429560 0.012977 1.689422
v -0.591836 0.012500 2.752034
v -2.970803 0.012499 -0.003122
v -0.640225 0.011489 -3.340562
v 2.969071 0.012500 -1.463116
v 3.937761 1.760581 -1.634803
v 3.471895 1.760580 2.023662
v 0.244179 1.058653 3.990190
v 3.479368 1.058653 -2.867232
v 1.846863 0.235338 4.563427
v 4.940912 0.235337 -1.994833
v 0.120922 0.003840 -0.251482
v 0.122605 0.003842 -0.252586
vt 0.983868 0.958855
vt 0.968994 0.967839
vt 0.947700 0.958855
vt 0.068053 0.958855
vt 0.040479 0.967839
vt 0.019184 0.958855
vt 0.006483 0.967985
vt 0.116923 0.958855
vt 0.089348 0.967839
vt 0.165792 0.958855
vt 0.138217 0.967839
vt 0.187087 0.967839
vt 0.055352 0.984826
vt 0.104221 0.984826
vt 0.079787 0.984902
vt 0.153091 0.984826
vt 0.128656 0.984902
vt 0.201960 0.984826
vt 0.177526 0.984902
vt 0.235956 0.967839
vt 0.030918 0.984902
vt 0.150203 0.235217
vt 0.139546 0.239586
vt 0.132070 0.235217
vt 0.817678 0.155670
vt 0.801740 0.152939
vt 0.818090 0.165514
vt 0.825181 0.164281
vt 0.694189 0.235217
vt 0.683532 0.239586
vt 0.676057 0.235217
vt 0.819773 0.228492
vt 0.822504 0.212554
vt 0.803411 0.232468
vt 0.811162 0.235995
vt 0.807412 0.147966
vt 0.827478 0.218226
vt 0.790007 0.195938
vt 0.805756 0.207831
vt 0.790352 0.194700
vt 0.826247 0.185221
vt 0.806731 0.178463
vt 0.790189 0.190880
vt 0.789740 0.189676
vt 0.789109 0.188556
vt 0.788310 0.187550
vt 0.780430 0.165522
vt 0.774407 0.149196
vt 0.780065 0.185254
vt 0.778861 0.185703
vt 0.754700 0.157353
vt 0.755476 0.186390
vt 0.742124 0.173703
vt 0.775866 0.188080
vt 0.775156 0.189151
vt 0.774622 0.190320
vt 0.774277 0.191558
vt 0.738382 0.201036
vt 0.774130 0.192834
vt 0.774185 0.194118
vt 0.771690 0.217567
vt 0.746539 0.220744
vt 0.775520 0.197701
vt 0.776319 0.198707
vt 0.762889 0.233319
vt 0.777265 0.199577
vt 0.778336 0.200287
vt 0.779505 0.200821
vt 0.780743 0.201166
vt 0.783627 0.238303
vt 0.788763 0.198178
vt 0.789473 0.197107
vt 0.959433 0.950212
vt 0.959433 0.940599
vt 0.983868 0.940599
vt 0.983868 0.950212
vt 0.116707 0.950212
vt 0.128656 0.940599
vt 0.163089 0.940599
vt 0.165576 0.950212
vt 0.094223 0.940599
vt 0.018969 0.950212
vt 0.016482 0.940599
vt 0.055352 0.940599
vt 0.067838 0.950212
vt 0.238128 0.958855
vt 0.201960 0.958855
vt 0.201960 0.950212
vt 0.238344 0.950212
vt 0.922513 0.950212
vt 0.275264 0.958855
vt 0.275264 0.950212
vt 0.284825 0.967839
vt 0.197126 0.239586
vt 0.204601 0.235217
vt 0.222735 0.235217
vt 0.233391 0.239586
vt 0.186469 0.235217
vt 0.795448 0.143317
vt 0.779412 0.141696
vt 0.226395 0.984902
vt 0.006483 0.984826
vt 0.240867 0.235217
vt 0.259001 0.235217
vt 0.269657 0.239586
vt 0.763661 0.145110
vt 0.749735 0.153225
vt 0.015797 0.239586
vt 0.023273 0.235217
vt 0.041406 0.235217
vt 0.052063 0.239586
vt 0.005140 0.235217
vt 0.832126 0.206262
vt 0.833747 0.190226
vt 0.769181 0.242941
vt 0.785217 0.244561
vt 0.738999 0.165246
vt 0.059539 0.235217
vt 0.077672 0.235217
vt 0.088328 0.239586
vt 0.830333 0.174475
vt 0.800968 0.241147
vt 0.095804 0.235217
vt 0.113937 0.235217
vt 0.113937 0.239586
vt 0.732502 0.179995
vt 0.730882 0.196031
vt 0.657924 0.239586
vt 0.657924 0.235217
vt 0.168336 0.239586
vt 0.168336 0.235217
vt 0.734296 0.211783
vt 0.712322 0.239586
vt 0.712322 0.235217
vt 0.730455 0.235217
vt 0.730455 0.239586
vt 0.742411 0.225708
vt 0.790444 0.192139
vt 0.790499 0.193423
vt 0.786292 0.185970
vt 0.787363 0.186681
vt 0.785124 0.185436
vt 0.782609 0.184944
vt 0.783886 0.185091
vt 0.777742 0.186334
vt 0.774889 0.196582
vt 0.774440 0.195378
vt 0.782020 0.201313
vt 0.784563 0.201003
vt 0.783304 0.201258
vt 0.787893 0.199124
vn 0.8036 0.5888 -0.0871
vn 0.6381 0.7544 -0.1539
vn 0.7599 0.5806 -0.2922
vn 0.7866 0.5956 0.1629
vn 0.6067 0.7944 0.0296
vn 0.6977 0.5956 0.3980
vn 0.5620 0.8016 0.2040
vn 0.5842 0.6012 0.5452
vn 0.4715 0.8016 0.3677
vn 0.3281 0.8286 0.4537
vn 0.5226 0.8492 0.0758
vn 0.4736 0.8492 0.2336
vn 0.5182 0.8434 0.1422
vn 0.3782 0.8492 0.3685
vn 0.4489 0.8434 0.2954
vn 0.2458 0.8492 0.4673
vn 0.3356 0.8434 0.4196
vn 0.2156 0.8537 0.4740
vn 0.5367 0.8434 -0.0249
vn 0.4452 0.0388 0.8946
vn 0.5456 0.1815 0.8182
vn 0.6431 0.0829 0.7613
vn 0.1235 -0.9739 0.1903
vn 0.0438 -0.9869 0.1553
vn 0.1023 -0.9888 0.1086
vn 0.1740 -0.9732 0.1505
vn 0.8946 0.0388 -0.4452
vn 0.8182 0.1815 -0.5456
vn 0.7613 0.0829 -0.6431
vn 0.1713 -0.9783 -0.1162
vn 0.1569 -0.9866 -0.0445
vn 0.0965 -0.9873 -0.1262
vn 0.1790 -0.9679 -0.1766
vn 0.0950 -0.9652 0.2437
vn 0.2437 -0.9652 -0.0950
vn 0.0040 -1.0000 -0.0004
vn 0.0292 -0.9995 -0.0126
vn 0.0042 -1.0000 -0.0000
vn 0.1544 -0.9865 0.0540
vn 0.0201 -0.9997 0.0170
vn 0.0040 -1.0000 0.0018
vn 0.0035 -1.0000 0.0023
vn 0.0030 -1.0000 0.0028
vn 0.0026 -1.0000 0.0034
vn -0.0070 -0.9995 0.0316
vn -0.0566 -0.9861 0.1565
vn -0.0020 -1.0000 0.0035
vn -0.0023 -1.0000 0.0034
vn -0.0025 -1.0000 0.0034
vn -0.1038 -0.9897 0.0988
vn -0.0310 -0.9995 0.0014
vn -0.1603 -0.9860 0.0459
vn -0.0037 -1.0000 0.0017
vn -0.0037 -1.0000 0.0014
vn -0.0037 -1.0000 0.0007
vn -0.0038 -1.0000 0.0001
vn -0.1531 -0.9866 -0.0562
vn -0.0039 -1.0000 -0.0006
vn -0.0040 -1.0000 -0.0013
vn -0.0078 -0.9995 -0.0301
vn -0.0925 -0.9931 -0.0716
vn -0.0033 -1.0000 -0.0028
vn -0.0024 -1.0000 -0.0029
vn -0.0103 -0.9963 -0.0853
vn -0.0017 -1.0000 -0.0030
vn -0.0011 -1.0000 -0.0031
vn -0.0006 -1.0000 -0.0032
vn -0.0001 -1.0000 -0.0034
vn 0.0271 -0.9895 -0.1417
vn 0.0033 -1.0000 -0.0019
vn 0.0033 -1.0000 -0.0018
vn 0.0034 -1.0000 -0.0016
vn 0.9009 0.3469 -0.2609
vn 0.9700 0.0403 -0.2397
vn 0.9924 0.0327 -0.1184
vn 0.9600 0.2639 -0.0930
vn 0.8300 0.2846 0.4796
vn 0.8058 0.0397 0.5908
vn 0.7741 0.0041 0.6331
vn 0.7467 0.2731 0.6065
vn 0.9327 -0.0016 0.3608
vn 0.9943 0.0561 0.0908
vn 0.9362 0.2931 0.1941
vn 0.1810 0.5711 0.8007
vn 0.3383 0.4875 0.8050
vn 0.2291 0.4898 0.8412
vn 0.7481 0.5567 -0.3612
vn 0.1047 0.6145 0.7819
vn 0.1192 0.4857 0.8659
vn 0.0939 0.6913 0.7164
vn 0.0960 0.1617 0.9822
vn -0.0297 -0.0178 0.9994
vn -0.0760 -0.0319 0.9966
vn -0.2110 0.1515 0.9657
vn 0.2253 0.0388 0.9735
vn 0.0053 -0.9755 0.2200
vn -0.0325 -0.9742 0.2233
vn 0.2130 0.8489 0.4838
vn 0.5259 0.8489 -0.0531
vn -0.3371 -0.0178 0.9413
vn -0.3624 -0.0718 0.9293
vn -0.1303 -0.9716 0.1974
vn -0.1692 -0.9745 0.1471
vn 0.9822 0.1616 -0.0960
vn 0.9994 -0.0178 0.0297
vn 0.9966 -0.0319 0.0760
vn 0.9657 0.1515 0.2110
vn 0.9735 0.0388 -0.2253
vn 0.2200 -0.9755 -0.0053
vn 0.2233 -0.9742 0.0325
vn 0.0030 -0.9740 -0.2264
vn 0.0504 -0.9745 -0.2185
vn -0.2161 -0.9703 0.1087
vn 0.9413 -0.0178 0.3371
vn 0.9243 -0.0319 0.3802
vn 0.8522 0.1715 0.4944
vn 0.1941 -0.9731 0.1239
vn 0.1082 -0.9707 -0.2145
vn 0.7990 0.0829 0.5956
vn 0.7274 0.0495 0.6844
vn -0.2211 -0.9752 0.0063
vn -0.2233 -0.9742 -0.0325
vn 0.7471 0.0493 -0.6629
vn 0.3378 0.0089 0.9412
vn -0.1974 -0.9716 -0.1303
vn 0.9412 0.0089 -0.3378
vn -0.1814 -0.9740 -0.1355
vn 0.0046 -1.0000 0.0012
vn 0.0047 -1.0000 0.0008
vn 0.0016 -1.0000 0.0045
vn 0.0020 -1.0000 0.0043
vn 0.0012 -1.0000 0.0044
vn -0.0002 -1.0000 0.0039
vn -0.0027 -1.0000 0.0034
vn -0.0042 -1.0000 -0.0028
vn -0.0043 -1.0000 -0.0024
vn 0.0002 -1.0000 -0.0034
vn 0.0015 -1.0000 -0.0040
vn 0.0032 -1.0000 -0.0021
usemtl pot_texture
s 1
f 71/1/1 67/2/2 72/3/3
f 75/4/4 60/5/5 71/6/1
f 71/6/1 60/5/5 67/7/2
f 76/8/6 61/9/7 75/4/4
f 75/4/4 61/9/7 60/5/5
f 77/10/8 62/11/9 76/8/6
f 76/8/6 62/11/9 61/9/7
f 77/10/8 63/12/10 62/11/9
f 60/5/5 61/9/7 11/13/11
f 87/14/12 79/15/13 61/9/7
f 61/9/7 62/11/9 87/14/12
f 88/16/14 80/17/15 62/11/9
f 62/11/9 63/12/10 88/16/14
f 90/18/16 81/19/17 63/12/10
f 63/12/10 64/20/18 90/18/16
f 11/13/11 78/21/19 60/5/5
f 90/22/20 113/23/21 81/24/22
f 113/25/23 34/26/24 33/27/25
f 113/25/23 33/27/25 110/28/26
f 91/29/27 114/30/28 85/31/29
f 114/32/30 43/33/31 42/34/32
f 114/32/30 42/34/32 111/35/33
f 145/36/34 34/26/24 113/25/23
f 146/37/35 43/33/31 114/32/30
f 12/38/36 140/39/37 116/40/38
f 140/39/37 43/33/31 32/41/39
f 140/39/37 32/41/39 136/42/40
f 14/43/41 136/42/40 118/44/42
f 136/42/40 32/41/39 33/27/25
f 15/45/43 136/42/40 119/46/44
f 136/42/40 33/27/25 34/26/24
f 136/42/40 34/26/24 137/47/45
f 137/47/45 34/26/24 35/48/46
f 19/49/47 137/47/48 123/50/49
f 137/47/45 35/48/46 36/51/50
f 137/47/45 36/51/50 138/52/51
f 138/52/51 36/51/50 37/53/52
f 21/54/53 138/52/51 125/55/54
f 22/56/55 138/52/51 126/57/56
f 138/52/51 37/53/52 38/58/57
f 23/59/58 138/52/51 127/60/59
f 138/52/51 38/58/57 139/61/60
f 139/61/60 38/58/57 39/62/61
f 25/63/62 139/61/60 129/64/63
f 139/61/60 39/62/61 40/65/64
f 26/66/65 139/61/60 130/67/66
f 27/68/67 139/61/60 131/69/68
f 139/61/60 40/65/64 41/70/69
f 139/61/60 41/70/69 42/34/32
f 139/61/60 42/34/32 140/39/37
f 140/39/37 42/34/32 43/33/31
f 31/71/70 140/39/71 135/72/72
f 52/73/73 141/74/74 55/75/75 1/76/76
f 3/77/77 142/78/78 56/79/79 4/80/80
f 57/81/81 142/78/78 3/77/77
f 1/82/76 55/83/75 58/84/82 2/85/83
f 57/81/81 3/77/77 2/85/83
f 58/84/82 57/81/81 2/85/83
f 69/86/84 70/87/85 5/88/85 48/89/86
f 72/3/3 52/73/73 1/76/76 71/1/1
f 51/90/87 52/73/73 72/3/3
f 143/91/88 69/86/84 48/89/86 49/92/89
f 65/93/90 64/20/90 69/86/84 143/91/88
f 71/6/1 1/82/76 2/85/83 75/4/4
f 75/4/4 2/85/83 3/77/77 76/8/6
f 76/8/6 3/77/77 4/80/80 77/10/8
f 97/94/91 83/95/92 94/96/93 96/97/94
f 92/98/95 83/95/92 97/94/91
f 35/48/46 34/26/24 97/99/96 96/100/97
f 11/13/11 61/9/7 79/15/13
f 87/14/12 62/11/9 80/17/15
f 88/16/14 63/12/10 81/19/17
f 90/18/16 64/20/18 82/101/98
f 93/102/99 60/5/5 78/21/19
f 96/97/94 84/103/100 95/104/101 100/105/101
f 94/96/93 84/103/100 96/97/94
f 96/100/97 100/106/102 35/48/46
f 36/51/50 35/48/46 100/106/102 102/107/103
f 104/108/104 78/109/105 11/110/106 103/111/107
f 93/112/108 78/109/105 104/108/104
f 32/41/39 43/33/31 104/113/109 103/114/110
f 41/70/69 40/65/64 101/115/111 105/116/112
f 37/53/52 36/51/50 102/107/103 106/117/113
f 103/111/107 79/118/114 87/119/115 107/120/116
f 11/110/106 79/118/114 103/111/107
f 103/114/110 107/121/117 32/41/39
f 42/34/32 41/70/69 105/116/112 108/122/118
f 107/120/116 80/123/119 88/124/120 110/125/120
f 106/117/113 109/126/121 37/53/52
f 87/119/115 80/123/119 107/120/116
f 33/27/25 32/41/39 107/121/117 110/28/26
f 108/122/118 111/35/33 42/34/32
f 38/58/57 37/53/52 109/126/121 112/127/122
f 113/23/21 110/125/120 88/124/120 81/24/22
f 114/30/28 111/128/123 89/129/123 85/31/29
f 145/130/124 113/23/21 90/22/20 82/131/124
f 112/127/122 115/132/125 38/58/57
f 145/130/124 82/131/124 92/98/95 97/94/91
f 146/133/126 114/30/28 91/29/27 86/134/126
f 145/36/34 97/99/96 34/26/24
f 146/133/126 86/134/126 93/135/108 104/136/104
f 146/37/35 104/113/109 43/33/31
f 39/62/61 38/58/57 115/132/125 99/137/127
f 136/42/40 117/138/128 13/139/129 140/39/37
f 13/139/129 116/40/38 140/39/37
f 14/43/41 117/138/128 136/42/40
f 137/47/45 120/140/130 16/141/131 136/42/40
f 15/45/43 118/44/42 136/42/40
f 16/141/131 119/46/44 136/42/40
f 17/142/132 120/140/130 137/47/45
f 18/143/133 121/144/133 137/47/133
f 20/145/134 123/50/49 137/47/48
f 139/61/60 128/146/135 24/147/136 138/52/51
f 22/56/55 125/55/54 138/52/51
f 23/59/58 126/57/56 138/52/51
f 24/147/136 127/60/59 138/52/51
f 25/63/62 128/146/135 139/61/60
f 26/66/65 129/64/63 139/61/60
f 27/68/67 130/67/66 139/61/60
f 28/148/137 131/69/68 139/61/60
f 29/149/138 132/150/138 139/61/138
f 31/71/70 134/151/139 140/39/71
l 6 7
l 8 9
l 9 10
l 46 53
l 54 44
l 9 68
l 6 74
l 140 30
l 46 47
l 44 45
l 51 144
l 86 67
l 94 65
l 98 99
l 101 98
l 122 137
l 124 138
l 133 140
l 148 147
l 59 47
l 50 59
l 73 9
l 66 72
