# Blender v2.90.1 OBJ File: '陶花瓶吊兰.blend'
# www.blender.org
mtllib 陶花瓶吊兰8.mtl
o pot.008_NurbsPath.009
v -4.528191 16.236952 -0.396354
v -4.583047 16.105892 -0.254277
v -4.603127 16.057920 -0.060197
v -4.583048 16.105890 0.133884
v -4.528192 16.236952 0.275961
v -4.453256 16.415983 0.327965
v -4.378320 16.595013 0.275961
v -4.323464 16.726072 0.133885
v -4.303384 16.774044 -0.060196
v -4.323464 16.726072 -0.254277
v -4.378320 16.595013 -0.396354
v -4.453256 16.415983 -0.448358
v -4.788815 16.981604 -0.060196
v -4.044001 19.664259 -0.060197
v -4.087927 19.696836 0.137446
v -4.258496 19.747833 0.282660
v -4.256618 19.521563 -0.060196
v -4.282380 19.569326 0.138586
v -4.611044 19.794422 0.334549
v -4.500031 19.419271 -0.060196
v -4.502405 19.474112 0.137452
v -4.543128 19.613159 0.281959
v -4.755898 19.363729 -0.060197
v -4.747688 19.418137 0.137452
v 3.394623 16.502510 5.717391
v -0.746807 16.502499 6.503155
v 4.017809 13.346448 6.853642
v 1.627701 13.346448 7.711451
v -0.910505 13.346448 7.788693
v -3.348351 13.346449 7.077807
v 3.719867 15.232033 6.310410
v 1.512209 15.232033 7.102739
v -0.832242 15.232034 7.174086
v -3.083994 15.232033 6.517464
v -5.345122 15.232033 -5.400115
v 4.767164 19.791790 0.329707
v -0.477682 19.791788 4.389681
v 2.370086 19.791788 3.849373
v 4.241689 16.631392 5.068615
v 2.392220 16.631426 6.082955
v 0.319830 16.631432 6.476148
v -1.772635 16.631428 6.209697
v -3.680357 16.631407 5.309689
v 3.899760 14.289240 6.638403
v 1.581941 14.289240 7.470270
v -0.879496 14.289241 7.545174
v -3.243608 14.289240 6.855790
v -5.617565 14.289241 -5.656465
v -2.157344 13.346449 7.528978
v 0.361631 13.346449 7.849743
v 2.856439 13.346448 7.376401
v 5.082873 13.346448 6.155289
v -2.795412 16.502501 5.905771
v 1.386135 16.502501 6.438244
v 5.082050 16.502508 4.411172
v -4.852543 16.502506 -4.936629
v -1.983902 15.232033 6.934196
v 0.342785 15.232033 7.230474
v 2.647151 15.232034 6.793265
v 4.703629 15.232033 5.665365
v 4.356390 19.791782 1.738383
v -1.886355 19.791792 3.978903
v 0.988993 19.791790 4.345047
v 3.530412 19.791788 2.951177
v 2.975549 19.821846 3.432962
v 0.256914 19.821842 4.408684
v -2.516019 19.821848 3.600080
v 3.977565 19.821844 2.368047
v 1.693501 19.821850 4.136115
v -1.193587 19.821848 4.223976
v 4.601459 19.821842 1.045617
v 4.076571 12.403656 6.960782
v 1.650479 12.403655 7.831508
v -0.925941 12.403656 7.909913
v -3.400491 12.403656 7.188323
v -2.191551 12.403655 7.646287
v 0.365348 12.403655 7.971880
v 2.897717 12.403655 7.491413
v 5.157670 12.403655 6.251915
v -2.088622 14.289239 7.293315
v 0.354164 14.289239 7.604376
v 2.773515 14.289239 7.145351
v 4.932608 14.289239 5.961172
v 4.926224 19.794424 0.136837
v 4.858305 19.613159 0.084247
v 5.077279 19.562330 0.084251
v 5.062862 19.418137 -0.060259
v 5.071077 19.363731 -0.257907
vt 0.304009 0.126823
vt 0.307725 0.134916
vt 0.300448 0.134916
vt 0.315156 0.126823
vt 0.315316 0.134916
vt 0.315474 0.118730
vt 0.201960 0.549373
vt 0.201960 0.584503
vt 0.177526 0.584503
vt 0.177526 0.545692
vt 0.226395 0.584503
vt 0.226395 0.545691
vt 0.250829 0.549373
vt 0.250829 0.584503
vt 0.275264 0.584503
vt 0.275264 0.545691
vt 0.299698 0.549373
vt 0.299698 0.584503
vt 0.324133 0.584503
vt 0.324133 0.545691
vt 0.348567 0.549373
vt 0.348567 0.584503
vt 0.324133 0.656256
vt 0.299698 0.656256
vt 0.299698 0.633048
vt 0.324133 0.633048
vt 0.348567 0.633048
vt 0.348567 0.656256
vt 0.275264 0.656256
vt 0.250829 0.656256
vt 0.250829 0.633048
vt 0.275264 0.633048
vt 0.226395 0.656256
vt 0.201960 0.656256
vt 0.201960 0.633048
vt 0.226395 0.633048
vt 0.177526 0.656256
vt 0.177526 0.633048
vt 0.299698 0.609264
vt 0.324133 0.609264
vt 0.348567 0.609264
vt 0.250829 0.609264
vt 0.275264 0.609264
vt 0.201960 0.609264
vt 0.226395 0.609264
vt 0.177526 0.609264
vt 0.153091 0.453703
vt 0.177526 0.452871
vt 0.153091 0.549373
vt 0.201960 0.453703
vt 0.250829 0.453703
vt 0.275264 0.452871
vt 0.299698 0.453703
vt 0.348567 0.453703
vt 0.373003 0.452871
vt 0.373003 0.545691
vt 0.226395 0.452871
vt 0.324133 0.452871
vt 0.315155 0.062079
vt 0.323164 0.062079
vt 0.315474 0.070172
vn 0.3007 -0.5540 0.7763
vn 0.3271 -0.6270 0.7070
vn 0.4021 -0.6070 0.6855
vn 0.2108 -0.4640 0.8604
vn 0.2870 -0.6359 0.7164
vn 0.1105 -0.2385 0.9648
vn 0.4152 0.5045 0.7570
vn 0.4364 0.4203 0.7956
vn 0.4993 0.4191 0.7583
vn 0.5060 0.5223 0.6864
vn 0.3065 0.4202 0.8541
vn 0.2904 0.5109 0.8091
vn 0.1609 0.5045 0.8483
vn 0.1691 0.4203 0.8915
vn 0.0276 0.4202 0.9070
vn 0.0261 0.5109 0.8593
vn -0.1091 0.5045 0.8565
vn -0.1146 0.4203 0.9001
vn -0.2540 0.4202 0.8712
vn -0.2407 0.5109 0.8253
vn -0.3396 0.5164 0.7861
vn -0.3200 0.4191 0.8497
vn -0.2776 0.1285 0.9521
vn -0.1253 0.1285 0.9838
vn -0.1240 0.1900 0.9739
vn -0.2748 0.1900 0.9425
vn -0.3478 0.1895 0.9182
vn -0.3513 0.1281 0.9274
vn 0.0302 0.1285 0.9912
vn 0.1849 0.1285 0.9743
vn 0.1830 0.1900 0.9646
vn 0.0299 0.1900 0.9813
vn 0.3350 0.1285 0.9334
vn 0.4769 0.1285 0.8695
vn 0.4721 0.1900 0.8608
vn 0.3316 0.1900 0.9241
vn 0.5438 0.1281 0.8294
vn 0.5384 0.1895 0.8211
vn -0.1201 0.3101 0.9431
vn -0.2661 0.3101 0.9127
vn -0.3369 0.3092 0.8893
vn 0.1772 0.3101 0.9340
vn 0.0289 0.3101 0.9503
vn 0.4572 0.3101 0.8336
vn 0.3212 0.3101 0.8948
vn 0.5215 0.3092 0.7953
vn 0.5675 0.5426 0.6193
vn 0.5136 0.5440 0.6635
vn 0.4036 0.5437 0.7359
vn 0.1564 0.5437 0.8246
vn 0.0255 0.5440 0.8387
vn -0.1060 0.5437 0.8326
vn -0.3581 0.5437 0.7591
vn -0.4136 0.5426 0.7311
vn 0.2835 0.5440 0.7898
vn -0.2349 0.5440 0.8056
vn -0.0598 -0.2574 0.9644
usemtl pot_texture
s 1
f 16/1/1 18/2/2 15/3/3
f 18/2/2 16/1/1 22/4/4 21/5/5
f 19/6/6 22/4/4 16/1/1
f 25/7/7 31/8/8 60/9/9 39/10/10
f 59/11/11 31/8/8 25/7/7 40/12/12
f 54/13/13 32/14/14 59/11/11 40/12/12
f 58/15/15 32/14/14 54/13/13 41/16/16
f 26/17/17 33/18/18 58/15/15 41/16/16
f 57/19/19 33/18/18 26/17/17 42/20/20
f 53/21/21 34/22/22 57/19/19 42/20/20
f 76/23/23 74/24/24 29/25/25 49/26/26
f 30/27/27 75/28/28 76/23/23 49/26/26
f 77/29/29 73/30/30 28/31/31 50/32/32
f 29/25/25 74/24/24 77/29/29 50/32/32
f 78/33/33 72/34/34 27/35/35 51/36/36
f 28/31/31 73/30/30 78/33/33 51/36/36
f 27/35/35 72/34/34 79/37/37 52/38/38
f 49/26/26 29/25/25 46/39/39 80/40/40
f 80/40/40 46/39/39 33/18/18 57/19/19
f 34/22/22 47/41/41 80/40/40 57/19/19
f 47/41/41 30/27/27 49/26/26 80/40/40
f 50/32/32 28/31/31 45/42/42 81/43/43
f 81/43/43 45/42/42 32/14/14 58/15/15
f 33/18/18 46/39/39 81/43/43 58/15/15
f 46/39/39 29/25/25 50/32/32 81/43/43
f 51/36/36 27/35/35 44/44/44 82/45/45
f 82/45/45 44/44/44 31/8/8 59/11/11
f 32/14/14 45/42/42 82/45/45 59/11/11
f 45/42/42 28/31/31 51/36/36 82/45/45
f 31/8/8 44/44/44 83/46/46 60/9/9
f 44/44/44 27/35/35 52/38/38 83/46/46
f 64/47/47 65/48/48 39/10/10 55/49/47
f 38/50/49 25/7/7 39/10/10 65/48/48
f 63/51/50 66/52/51 41/16/16 54/13/13
f 37/53/52 26/17/17 41/16/16 66/52/51
f 62/54/53 67/55/54 43/56/54 53/21/21
f 38/50/49 69/57/55 40/12/12 25/7/7
f 63/51/50 54/13/13 40/12/12 69/57/55
f 37/53/52 70/58/56 42/20/20 26/17/17
f 62/54/53 53/21/21 42/20/20 70/58/56
f 85/59/57 86/60/57 84/61/57
l 1 12
l 1 2
l 2 3
l 4 5
l 5 6
l 6 7
l 7 8
l 8 9
l 9 13
l 10 11
l 11 12
l 14 17
l 17 20
l 20 21
l 20 23
l 21 24
l 35 48
l 56 35
l 36 71
l 61 71
l 64 68
l 61 68
l 86 87
l 87 88
